<svg width="512" height="512" viewBox="0 0 512 512" fill="none" xmlns="http://www.w3.org/2000/svg">
<rect width="512" height="512" fill="#F8F8F7"/>
<path d="M250.153 107.587C250.153 107.812 249.569 108.037 248.804 108.037C248.085 108.037 247.455 108.217 247.455 108.487C247.455 108.712 247.05 108.937 246.556 108.937C246.061 108.937 245.656 109.116 245.656 109.386C245.656 109.611 245.341 109.836 244.981 109.836C244.082 109.836 239.36 114.558 239.36 115.458C239.36 115.817 239.18 116.132 238.91 116.132C238.685 116.132 238.46 116.492 238.46 116.942C238.46 117.392 238.056 118.021 237.561 118.381C237.066 118.741 236.661 119.37 236.661 119.82C236.661 120.27 236.481 120.63 236.212 120.63C235.987 120.63 235.762 121.034 235.762 121.529C235.762 122.024 235.582 122.429 235.312 122.429C235.087 122.429 234.862 122.788 234.862 123.238C234.862 123.688 234.458 124.317 233.963 124.677C233.468 125.037 233.063 125.667 233.063 126.116C233.063 126.566 232.884 126.926 232.614 126.926C232.389 126.926 232.164 127.735 232.164 127.735L99.0423 358.18C99.0423 358.18 98.8624 358.989 98.5926 358.989C98.3677 358.989 98.1428 359.394 98.1428 359.889C98.1428 360.384 97.9629 360.788 97.6931 360.788C97.4682 360.788 97.2434 361.148 97.2434 361.598C97.2434 362.048 96.8386 362.677 96.3439 363.037C95.8492 363.397 95.4444 364.026 95.4444 364.476C95.4444 364.926 95.2645 365.286 94.9947 365.286C94.7698 365.286 94.5449 365.645 94.5449 366.095C94.5449 366.545 94.1402 367.175 93.6455 367.534C93.1508 367.894 92.746 368.524 92.746 368.974C92.746 369.423 92.5661 369.783 92.2963 369.783C92.0714 369.783 91.8465 370.188 91.8465 370.683C91.8465 371.177 91.6666 371.582 91.3968 371.582C91.1719 371.582 90.9471 371.942 90.9471 372.392C90.9471 372.841 90.5423 373.471 90.0476 373.831C89.5529 374.19 89.1481 374.82 89.1481 375.27C89.1481 375.72 88.9682 376.079 88.6984 376.079C88.4735 376.079 88.2486 376.664 88.2486 377.429C88.2486 378.148 88.0688 378.778 87.7989 378.778C87.574 378.778 87.3492 379.767 87.3492 381.026C87.3492 382.241 87.1693 383.275 86.8994 383.275C86.6746 383.275 86.4497 384.265 86.4497 385.524C86.4497 386.738 86.6746 387.772 86.8994 387.772C87.1693 387.772 87.3492 388.762 87.3492 390.021C87.3492 391.235 87.574 392.27 87.7989 392.27C88.0688 392.27 88.2486 392.675 88.2486 393.169C88.2486 393.664 88.4735 394.069 88.6984 394.069C88.9682 394.069 89.1481 394.474 89.1481 394.968C89.1481 395.463 89.373 395.868 89.5979 395.868C89.8677 395.868 90.0476 396.183 90.0476 396.542C90.0476 397.442 94.7698 402.164 95.6693 402.164C96.0291 402.164 96.3439 402.344 96.3439 402.614C96.3439 402.839 96.7486 403.063 97.2434 403.063C97.7381 403.063 98.1428 403.243 98.1428 403.513C98.1428 403.738 98.5476 403.963 99.0423 403.963C99.537 403.963 99.9418 404.143 99.9418 404.413C99.9418 404.728 152.246 404.862 256 404.862C359.754 404.862 412.058 404.728 412.058 404.413C412.058 404.143 412.463 403.963 412.958 403.963C413.452 403.963 413.857 403.738 413.857 403.513C413.857 403.243 414.262 403.063 414.757 403.063C415.251 403.063 415.656 402.839 415.656 402.614C415.656 402.344 415.971 402.164 416.331 402.164C417.23 402.164 421.952 397.442 421.952 396.542C421.952 396.183 422.177 395.868 422.402 395.868C422.672 395.868 422.852 395.463 422.852 394.968C422.852 394.474 423.077 394.069 423.302 394.069C423.571 394.069 423.751 393.664 423.751 393.169C423.751 392.675 423.976 392.27 424.201 392.27C424.471 392.27 424.651 391.235 424.651 390.021C424.651 388.762 424.876 387.772 425.1 387.772C425.37 387.772 425.55 386.558 425.55 385.074C425.55 383.59 425.37 382.376 425.1 382.376C424.876 382.376 424.651 381.566 424.651 380.577C424.651 379.587 424.471 378.778 424.201 378.778C423.976 378.778 423.751 378.148 423.751 377.429C423.751 376.664 423.571 376.079 423.302 376.079C423.077 376.079 422.852 375.72 422.852 375.27C422.852 374.82 422.447 374.19 421.952 373.831C421.458 373.471 421.053 372.841 421.053 372.392C421.053 371.942 420.873 371.582 420.603 371.582C420.378 371.582 420.153 371.177 420.153 370.683C420.153 370.188 419.974 369.783 419.704 369.783C419.479 369.783 419.254 369.423 419.254 368.974C419.254 368.524 418.849 367.894 418.354 367.534C417.86 367.175 417.455 366.545 417.455 366.095C417.455 365.645 417.275 365.286 417.005 365.286C416.78 365.286 416.556 364.926 416.556 364.476C416.556 364.026 416.151 363.397 415.656 363.037C415.161 362.677 414.757 362.048 414.757 361.598C414.757 361.148 414.577 360.788 414.307 360.788C414.082 360.788 413.857 360.384 413.857 359.889C413.857 359.394 413.677 358.989 413.407 358.989C413.183 358.989 412.958 358.63 412.958 358.18C412.958 357.73 412.553 357.101 412.058 356.741C411.563 356.381 411.159 355.751 411.159 355.302C411.159 354.852 410.979 354.492 410.709 354.492C410.484 354.492 410.259 354.087 410.259 353.593C410.259 353.098 410.079 352.693 409.809 352.693C409.585 352.693 409.36 352.333 409.36 351.884C409.36 351.434 408.955 350.804 408.46 350.444C407.966 350.085 407.561 349.455 407.561 349.005C407.561 348.556 407.381 348.196 407.111 348.196C406.886 348.196 406.661 347.791 406.661 347.296C406.661 346.802 406.481 346.397 406.212 346.397C405.987 346.397 405.762 346.037 405.762 345.587C405.762 345.138 405.357 344.508 404.862 344.148C404.368 343.788 403.963 343.159 403.963 342.709C403.963 342.259 403.783 341.899 403.513 341.899C403.288 341.899 403.063 341.54 403.063 341.09C403.063 340.64 402.659 340.011 402.164 339.651C401.669 339.291 401.265 338.661 401.265 338.212C401.265 337.762 401.085 337.402 400.815 337.402C400.59 337.402 400.365 336.997 400.365 336.503C400.365 336.008 400.185 335.603 399.915 335.603C399.69 335.603 399.466 335.243 399.466 334.794C399.466 334.344 399.061 333.714 398.566 333.354C398.071 332.995 397.667 332.365 397.667 331.915C397.667 331.466 397.487 331.106 397.217 331.106C396.992 331.106 396.767 330.701 396.767 330.206C396.767 329.712 396.587 329.307 396.317 329.307C396.093 329.307 395.868 328.947 395.868 328.497C395.868 328.048 395.463 327.418 394.968 327.058C394.474 326.698 394.069 326.069 394.069 325.619C394.069 325.169 393.889 324.81 393.619 324.81C393.394 324.81 393.169 324.45 393.169 324C393.169 323.55 392.765 322.921 392.27 322.561C391.775 322.201 391.37 321.571 391.37 321.122C391.37 320.672 391.19 320.312 390.921 320.312C390.696 320.312 390.471 319.907 390.471 319.413C390.471 318.918 390.291 318.513 390.021 318.513C389.796 318.513 389.571 318.153 389.571 317.704C389.571 317.254 389.167 316.624 388.672 316.265C388.177 315.905 387.772 315.275 387.772 314.825C387.772 314.376 387.593 314.016 387.323 314.016C387.098 314.016 386.873 313.611 386.873 313.116C386.873 312.622 386.693 312.217 386.423 312.217C386.198 312.217 385.974 311.857 385.974 311.407C385.974 310.958 385.569 310.328 385.074 309.968C384.579 309.608 384.175 308.979 384.175 308.529C384.175 308.079 383.995 307.72 383.725 307.72C383.5 307.72 383.275 307.315 383.275 306.82C383.275 306.325 383.095 305.921 382.825 305.921C382.601 305.921 382.376 305.561 382.376 305.111C382.376 304.661 381.971 304.032 381.476 303.672C380.981 303.312 380.577 302.683 380.577 302.233C380.577 301.783 380.397 301.423 380.127 301.423C379.902 301.423 379.677 301.063 379.677 300.614C379.677 300.164 379.272 299.534 378.778 299.175C378.283 298.815 377.878 298.185 377.878 297.735C377.878 297.286 377.698 296.926 377.429 296.926C377.204 296.926 376.979 296.521 376.979 296.026C376.979 295.532 376.799 295.127 376.529 295.127C376.304 295.127 376.079 294.767 376.079 294.317C376.079 293.868 375.675 293.238 375.18 292.878C374.685 292.519 374.28 291.889 374.28 291.439C374.28 290.989 374.1 290.63 373.831 290.63C373.606 290.63 373.381 290.225 373.381 289.73C373.381 289.235 373.201 288.831 372.931 288.831C372.706 288.831 372.481 288.471 372.481 288.021C372.481 287.571 372.077 286.942 371.582 286.582C371.087 286.222 370.682 285.593 370.682 285.143C370.682 284.693 370.503 284.333 370.233 284.333C370.008 284.333 369.783 283.929 369.783 283.434C369.783 282.939 369.603 282.534 369.333 282.534C369.108 282.534 368.884 282.175 368.884 281.725C368.884 281.275 368.479 280.646 367.984 280.286C367.489 279.926 367.085 279.296 367.085 278.847C367.085 278.397 366.905 278.037 366.635 278.037C366.41 278.037 366.185 277.677 366.185 277.228C366.185 276.778 365.78 276.148 365.286 275.788C364.791 275.429 364.386 274.799 364.386 274.349C364.386 273.899 364.206 273.54 363.936 273.54C363.712 273.54 363.487 273.135 363.487 272.64C363.487 272.146 363.307 271.741 363.037 271.741C362.812 271.741 362.587 271.381 362.587 270.931C362.587 270.481 362.183 269.852 361.688 269.492C361.193 269.132 360.788 268.503 360.788 268.053C360.788 267.603 360.608 267.243 360.339 267.243C360.114 267.243 359.889 266.839 359.889 266.344C359.889 265.849 359.709 265.444 359.439 265.444C359.214 265.444 358.989 265.085 358.989 264.635C358.989 264.185 358.585 263.556 358.09 263.196C357.595 262.836 357.19 262.206 357.19 261.757C357.19 261.307 357.011 260.947 356.741 260.947C356.516 260.947 356.291 260.587 356.291 260.138C356.291 259.688 355.886 259.058 355.392 258.698C354.897 258.339 354.492 257.709 354.492 257.259C354.492 256.81 354.312 256.45 354.042 256.45C353.817 256.45 353.593 256.045 353.593 255.55C353.593 255.056 353.413 254.651 353.143 254.651C352.918 254.651 352.693 254.291 352.693 253.841C352.693 253.392 352.288 252.762 351.794 252.402C351.299 252.042 350.894 251.413 350.894 250.963C350.894 250.513 350.714 250.153 350.444 250.153C350.22 250.153 349.995 249.749 349.995 249.254C349.995 248.759 349.815 248.355 349.545 248.355C349.32 248.355 349.095 247.995 349.095 247.545C349.095 247.095 348.69 246.466 348.196 246.106C347.701 245.746 347.296 245.116 347.296 244.667C347.296 244.217 347.116 243.857 346.847 243.857C346.622 243.857 346.397 243.452 346.397 242.958C346.397 242.463 346.217 242.058 345.947 242.058C345.722 242.058 345.497 241.698 345.497 241.249C345.497 240.799 345.093 240.169 344.598 239.81C344.103 239.45 343.698 238.82 343.698 238.37C343.698 237.921 343.518 237.561 343.249 237.561C343.024 237.561 342.799 237.201 342.799 236.751C342.799 236.302 342.394 235.672 341.899 235.312C341.405 234.952 341 234.323 341 233.873C341 233.423 340.82 233.064 340.55 233.064C340.325 233.064 340.1 232.659 340.1 232.164C340.1 231.669 339.921 231.265 339.651 231.265C339.426 231.265 339.201 230.905 339.201 230.455C339.201 230.005 338.796 229.376 338.302 229.016C337.807 228.656 337.402 228.026 337.402 227.577C337.402 227.127 337.222 226.767 336.952 226.767C336.727 226.767 336.503 226.362 336.503 225.868C336.503 225.373 336.323 224.968 336.053 224.968C335.828 224.968 335.603 224.608 335.603 224.159C335.603 223.709 335.198 223.079 334.704 222.72C334.209 222.36 333.804 221.73 333.804 221.28C333.804 220.831 333.624 220.471 333.354 220.471C333.13 220.471 332.905 220.066 332.905 219.571C332.905 219.077 332.725 218.672 332.455 218.672C332.23 218.672 332.005 218.312 332.005 217.862C332.005 217.413 331.6 216.783 331.106 216.423C330.611 216.064 330.206 215.434 330.206 214.984C330.206 214.534 330.026 214.175 329.757 214.175C329.532 214.175 329.307 213.815 329.307 213.365C329.307 212.915 328.902 212.286 328.407 211.926C327.913 211.566 327.508 210.937 327.508 210.487C327.508 210.037 327.328 209.677 327.058 209.677C326.833 209.677 326.608 209.272 326.608 208.778C326.608 208.283 326.429 207.878 326.159 207.878C325.934 207.878 325.709 207.519 325.709 207.069C325.709 206.619 325.304 205.989 324.809 205.63C324.315 205.27 323.91 204.64 323.91 204.19C323.91 203.741 323.73 203.381 323.46 203.381C323.235 203.381 323.011 202.976 323.011 202.481C323.011 201.987 322.831 201.582 322.561 201.582C322.336 201.582 322.111 201.222 322.111 200.772C322.111 200.323 321.706 199.693 321.212 199.333C320.717 198.974 320.312 198.344 320.312 197.894C320.312 197.444 320.132 197.085 319.862 197.085C319.638 197.085 319.413 196.68 319.413 196.185C319.413 195.69 319.233 195.286 318.963 195.286C318.738 195.286 318.513 194.926 318.513 194.476C318.513 194.026 318.108 193.397 317.614 193.037C317.119 192.677 316.714 192.048 316.714 191.598C316.714 191.148 316.534 190.788 316.265 190.788C316.04 190.788 315.815 190.429 315.815 189.979C315.815 189.529 315.41 188.899 314.915 188.54C314.421 188.18 314.016 187.55 314.016 187.101C314.016 186.651 313.836 186.291 313.566 186.291C313.341 186.291 313.116 185.886 313.116 185.392C313.116 184.897 312.936 184.492 312.667 184.492C312.442 184.492 312.217 184.132 312.217 183.683C312.217 183.233 311.812 182.603 311.317 182.243C310.823 181.884 310.418 181.254 310.418 180.804C310.418 180.355 310.238 179.995 309.968 179.995C309.743 179.995 309.518 179.59 309.518 179.095C309.518 178.601 309.339 178.196 309.069 178.196C308.844 178.196 308.619 177.836 308.619 177.386C308.619 176.937 308.214 176.307 307.72 175.947C307.225 175.587 306.82 174.958 306.82 174.508C306.82 174.058 306.64 173.698 306.37 173.698C306.145 173.698 305.921 173.294 305.921 172.799C305.921 172.304 305.741 171.899 305.471 171.899C305.246 171.899 305.021 171.54 305.021 171.09C305.021 170.64 304.616 170.011 304.122 169.651C303.627 169.291 303.222 168.661 303.222 168.212C303.222 167.762 303.042 167.402 302.772 167.402C302.548 167.402 302.323 167.042 302.323 166.593C302.323 166.143 301.918 165.513 301.423 165.153C300.929 164.794 300.524 164.164 300.524 163.714C300.524 163.265 300.344 162.905 300.074 162.905C299.849 162.905 299.624 162.5 299.624 162.005C299.624 161.511 299.444 161.106 299.175 161.106C298.95 161.106 298.725 160.746 298.725 160.296C298.725 159.847 298.32 159.217 297.825 158.857C297.331 158.497 296.926 157.868 296.926 157.418C296.926 156.968 296.746 156.608 296.476 156.608C296.251 156.608 296.026 156.204 296.026 155.709C296.026 155.214 295.847 154.81 295.577 154.81C295.352 154.81 295.127 154.45 295.127 154C295.127 153.55 294.722 152.921 294.227 152.561C293.733 152.201 293.328 151.571 293.328 151.122C293.328 150.672 293.148 150.312 292.878 150.312C292.653 150.312 292.429 149.907 292.429 149.413C292.429 148.918 292.249 148.513 291.979 148.513C291.754 148.513 291.529 148.153 291.529 147.704C291.529 147.254 291.124 146.624 290.63 146.265C290.135 145.905 289.73 145.275 289.73 144.825C289.73 144.376 289.55 144.016 289.28 144.016C289.056 144.016 288.831 143.656 288.831 143.206C288.831 142.757 288.426 142.127 287.931 141.767C287.436 141.407 287.032 140.778 287.032 140.328C287.032 139.878 286.852 139.519 286.582 139.519C286.357 139.519 286.132 139.114 286.132 138.619C286.132 138.124 285.952 137.72 285.683 137.72C285.458 137.72 285.233 137.36 285.233 136.91C285.233 136.46 284.828 135.831 284.333 135.471C283.839 135.111 283.434 134.482 283.434 134.032C283.434 133.582 283.254 133.222 282.984 133.222C282.759 133.222 282.534 132.817 282.534 132.323C282.534 131.828 282.354 131.423 282.085 131.423C281.86 131.423 281.635 131.064 281.635 130.614C281.635 130.164 281.23 129.534 280.735 129.175C280.241 128.815 279.836 128.185 279.836 127.735C279.836 127.286 279.656 126.926 279.386 126.926C279.161 126.926 278.936 126.566 278.936 126.116C278.936 125.667 278.532 125.037 278.037 124.677C277.542 124.317 277.138 123.688 277.138 123.238C277.138 122.788 276.958 122.429 276.688 122.429C276.463 122.429 276.238 122.024 276.238 121.529C276.238 121.034 276.058 120.63 275.788 120.63C275.563 120.63 275.339 120.27 275.339 119.82C275.339 119.37 274.934 118.741 274.439 118.381C273.944 118.021 273.54 117.392 273.54 116.942C273.54 116.492 273.36 116.132 273.09 116.132C272.865 116.132 272.64 115.817 272.64 115.458C272.64 114.558 267.918 109.836 267.018 109.836C266.659 109.836 266.344 109.611 266.344 109.386C266.344 109.116 265.939 108.937 265.444 108.937C264.95 108.937 264.545 108.712 264.545 108.487C264.545 108.217 263.96 108.037 263.196 108.037C262.476 108.037 261.847 107.812 261.847 107.587C261.847 107.317 259.598 107.138 256 107.138C252.402 107.138 250.153 107.317 250.153 107.587ZM258.474 139.294C259.328 140.148 260.048 141.138 260.048 141.542C260.048 141.902 260.272 142.217 260.497 142.217C260.767 142.217 260.947 142.577 260.947 143.026C260.947 143.476 261.352 144.106 261.847 144.466C262.341 144.825 262.746 145.455 262.746 145.905C262.746 146.355 262.971 146.714 263.196 146.714C263.466 146.714 263.645 147.119 263.645 147.614C263.645 148.108 263.87 148.513 264.095 148.513C264.365 148.513 264.545 148.873 264.545 149.323C264.545 149.773 264.95 150.402 265.444 150.762C265.939 151.122 266.344 151.751 266.344 152.201C266.344 152.651 266.569 153.011 266.794 153.011C267.063 153.011 267.243 153.415 267.243 153.91C267.243 154.405 267.468 154.81 267.693 154.81C267.963 154.81 268.143 155.169 268.143 155.619C268.143 156.069 268.548 156.698 269.042 157.058C269.537 157.418 269.942 158.048 269.942 158.497C269.942 158.947 270.167 159.307 270.392 159.307C270.661 159.307 270.841 159.712 270.841 160.206C270.841 160.701 271.066 161.106 271.291 161.106C271.561 161.106 271.741 161.466 271.741 161.915C271.741 162.365 272.145 162.995 272.64 163.355C273.135 163.714 273.54 164.344 273.54 164.794C273.54 165.243 273.765 165.603 273.989 165.603C274.259 165.603 274.439 165.963 274.439 166.413C274.439 166.862 274.844 167.492 275.339 167.852C275.833 168.212 276.238 168.841 276.238 169.291C276.238 169.741 276.463 170.101 276.688 170.101C276.958 170.101 277.138 170.505 277.138 171C277.138 171.495 277.362 171.899 277.587 171.899C277.857 171.899 278.037 172.259 278.037 172.709C278.037 173.159 278.442 173.788 278.936 174.148C279.431 174.508 279.836 175.138 279.836 175.587C279.836 176.037 280.061 176.397 280.286 176.397C280.556 176.397 280.735 176.802 280.735 177.296C280.735 177.791 280.96 178.196 281.185 178.196C281.455 178.196 281.635 178.556 281.635 179.005C281.635 179.455 282.04 180.085 282.534 180.444C283.029 180.804 283.434 181.434 283.434 181.884C283.434 182.333 283.659 182.693 283.884 182.693C284.153 182.693 284.333 183.098 284.333 183.593C284.333 184.087 284.558 184.492 284.783 184.492C285.053 184.492 285.233 184.852 285.233 185.302C285.233 185.751 285.638 186.381 286.132 186.741C286.627 187.101 287.032 187.73 287.032 188.18C287.032 188.63 287.257 188.989 287.481 188.989C287.751 188.989 287.931 189.349 287.931 189.799C287.931 190.249 288.336 190.878 288.831 191.238C289.325 191.598 289.73 192.228 289.73 192.677C289.73 193.127 289.955 193.487 290.18 193.487C290.45 193.487 290.63 193.892 290.63 194.386C290.63 194.881 290.854 195.286 291.079 195.286C291.349 195.286 291.529 195.646 291.529 196.095C291.529 196.545 291.934 197.175 292.429 197.534C292.923 197.894 293.328 198.524 293.328 198.974C293.328 199.423 293.553 199.783 293.778 199.783C294.048 199.783 294.227 200.188 294.227 200.683C294.227 201.177 294.452 201.582 294.677 201.582C294.947 201.582 295.127 201.942 295.127 202.392C295.127 202.841 295.532 203.471 296.026 203.831C296.521 204.19 296.926 204.82 296.926 205.27C296.926 205.72 297.151 206.079 297.376 206.079C297.645 206.079 297.825 206.484 297.825 206.979C297.825 207.474 298.05 207.878 298.275 207.878C298.545 207.878 298.725 208.238 298.725 208.688C298.725 209.138 299.13 209.767 299.624 210.127C300.119 210.487 300.524 211.116 300.524 211.566C300.524 212.016 300.749 212.376 300.974 212.376C301.243 212.376 301.423 212.735 301.423 213.185C301.423 213.635 301.828 214.265 302.323 214.624C302.817 214.984 303.222 215.614 303.222 216.064C303.222 216.513 303.447 216.873 303.672 216.873C303.942 216.873 304.122 217.278 304.122 217.772C304.122 218.267 304.347 218.672 304.571 218.672C304.841 218.672 305.021 219.032 305.021 219.481C305.021 219.931 305.426 220.561 305.921 220.921C306.415 221.28 306.82 221.91 306.82 222.36C306.82 222.81 307.045 223.169 307.27 223.169C307.54 223.169 307.72 223.574 307.72 224.069C307.72 224.563 307.944 224.968 308.169 224.968C308.439 224.968 308.619 225.328 308.619 225.778C308.619 226.228 309.024 226.857 309.518 227.217C310.013 227.577 310.418 228.206 310.418 228.656C310.418 229.106 310.643 229.466 310.868 229.466C311.138 229.466 311.317 229.87 311.317 230.365C311.317 230.86 311.542 231.265 311.767 231.265C312.037 231.265 312.217 231.624 312.217 232.074C312.217 232.524 312.622 233.153 313.116 233.513C313.611 233.873 314.016 234.503 314.016 234.952C314.016 235.402 314.241 235.762 314.466 235.762C314.735 235.762 314.915 236.122 314.915 236.571C314.915 237.021 315.32 237.651 315.815 238.011C316.309 238.37 316.714 239 316.714 239.45C316.714 239.899 316.939 240.259 317.164 240.259C317.434 240.259 317.614 240.664 317.614 241.159C317.614 241.653 317.839 242.058 318.063 242.058C318.333 242.058 318.513 242.418 318.513 242.868C318.513 243.317 318.918 243.947 319.413 244.307C319.907 244.667 320.312 245.296 320.312 245.746C320.312 246.196 320.537 246.556 320.762 246.556C321.032 246.556 321.212 246.96 321.212 247.41C321.212 247.905 321.481 248.355 321.796 248.489C322.066 248.579 322.201 248.849 322.021 248.984C321.886 249.164 302.997 230.59 280.106 207.698C249.209 176.802 238.46 165.783 238.46 165.019C238.46 164.479 238.865 163.714 239.36 163.355C239.854 162.995 240.259 162.365 240.259 161.915C240.259 161.466 240.484 161.106 240.709 161.106C240.979 161.106 241.159 160.701 241.159 160.206C241.159 159.712 241.384 159.307 241.608 159.307C241.878 159.307 242.058 158.947 242.058 158.497C242.058 158.048 242.463 157.418 242.958 157.058C243.452 156.698 243.857 156.069 243.857 155.619C243.857 155.169 244.082 154.81 244.307 154.81C244.577 154.81 244.757 154.405 244.757 153.91C244.757 153.415 244.981 153.011 245.206 153.011C245.476 153.011 245.656 152.651 245.656 152.201C245.656 151.751 246.061 151.122 246.556 150.762C247.05 150.402 247.455 149.773 247.455 149.323C247.455 148.873 247.68 148.513 247.905 148.513C248.175 148.513 248.354 148.108 248.354 147.614C248.354 147.119 248.579 146.714 248.804 146.714C249.074 146.714 249.254 146.355 249.254 145.905C249.254 145.455 249.659 144.825 250.153 144.466C250.648 144.106 251.053 143.476 251.053 143.026C251.053 142.577 251.278 142.217 251.503 142.217C251.772 142.217 251.952 141.902 251.952 141.542C251.952 140.463 254.741 137.765 255.91 137.765C256.495 137.72 257.574 138.349 258.474 139.294ZM229.466 192.138C231.175 193.847 232.794 195.286 233.063 195.286C233.333 195.286 234.772 196.5 236.212 197.984C237.651 199.468 239.09 200.683 239.36 200.683C239.63 200.683 241.249 202.077 242.958 203.831C244.667 205.54 246.286 206.979 246.556 206.979C246.825 206.979 248.265 208.193 249.704 209.677C251.143 211.161 252.582 212.376 252.852 212.376C253.122 212.376 254.741 213.77 256.45 215.524C258.159 217.233 259.778 218.672 260.048 218.672C260.317 218.672 261.936 220.066 263.645 221.82C265.354 223.529 266.974 224.968 267.243 224.968C267.513 224.968 268.952 226.183 270.392 227.667C271.831 229.151 273.27 230.365 273.54 230.365C273.809 230.365 275.429 231.759 277.138 233.513C278.847 235.222 280.466 236.661 280.735 236.661C281.005 236.661 282.624 238.056 284.333 239.81C286.042 241.519 287.661 242.958 287.931 242.958C288.201 242.958 289.64 244.172 291.079 245.656C292.518 247.14 293.958 248.355 294.227 248.355C294.497 248.355 296.116 249.749 297.825 251.503C299.534 253.212 301.153 254.651 301.423 254.651C301.693 254.651 303.312 256.045 305.021 257.799C306.73 259.508 308.349 260.947 308.619 260.947C309.294 260.947 311.497 263.196 311.138 263.511C311.003 263.69 310.508 263.331 310.013 262.836C309.563 262.296 308.844 261.847 308.439 261.847C308.034 261.847 307.72 261.622 307.72 261.397C307.72 261.127 307.315 260.947 306.82 260.947C306.325 260.947 305.921 260.722 305.921 260.497C305.921 260.228 305.561 260.048 305.111 260.048C304.661 260.048 304.032 259.643 303.672 259.148C303.312 258.653 302.683 258.249 302.233 258.249C301.783 258.249 301.423 258.024 301.423 257.799C301.423 257.529 301.063 257.349 300.614 257.349C300.164 257.349 299.534 256.944 299.175 256.45C298.815 255.955 298.185 255.55 297.735 255.55C297.286 255.55 296.926 255.325 296.926 255.101C296.926 254.831 296.521 254.651 296.026 254.651C295.532 254.651 295.127 254.426 295.127 254.201C295.127 253.931 294.767 253.751 294.317 253.751C293.868 253.751 293.238 253.347 292.878 252.852C292.518 252.357 291.889 251.952 291.439 251.952C290.989 251.952 290.63 251.728 290.63 251.503C290.63 251.233 290.225 251.053 289.73 251.053C289.235 251.053 288.831 250.828 288.831 250.603C288.831 250.333 288.471 250.153 288.021 250.153C287.571 250.153 286.942 249.749 286.582 249.254C286.222 248.759 285.593 248.355 285.143 248.355C284.693 248.355 284.333 248.13 284.333 247.905C284.333 247.635 283.929 247.455 283.434 247.455C282.939 247.455 282.534 247.23 282.534 247.005C282.534 246.735 282.175 246.556 281.725 246.556C281.275 246.556 280.645 246.151 280.286 245.656C279.926 245.161 279.296 244.757 278.847 244.757C278.397 244.757 278.037 244.532 278.037 244.307C278.037 244.037 277.677 243.857 277.227 243.857C276.778 243.857 276.148 243.452 275.788 242.958C275.429 242.463 274.799 242.058 274.349 242.058C273.899 242.058 273.54 241.833 273.54 241.608C273.54 241.339 273.135 241.159 272.64 241.159C272.145 241.159 271.741 240.934 271.741 240.709C271.741 240.439 271.381 240.259 270.931 240.259C270.481 240.259 269.852 239.855 269.492 239.36C269.132 238.865 268.503 238.46 268.053 238.46C267.603 238.46 267.243 238.235 267.243 238.011C267.243 237.741 266.839 237.561 266.344 237.561C265.849 237.561 265.444 237.336 265.444 237.111C265.444 236.841 265.085 236.661 264.635 236.661C264.185 236.661 263.556 236.257 263.196 235.762C262.836 235.267 262.206 234.862 261.757 234.862C261.307 234.862 260.947 234.638 260.947 234.413C260.947 234.143 260.587 233.963 260.138 233.963C259.688 233.963 259.058 233.558 258.698 233.064C258.339 232.569 257.709 232.164 257.259 232.164C256.809 232.164 256.45 231.939 256.45 231.714C256.45 231.444 256.045 231.265 255.55 231.265C255.056 231.265 254.651 231.04 254.651 230.815C254.651 230.545 254.291 230.365 253.841 230.365C253.392 230.365 252.762 229.96 252.402 229.466C252.042 228.971 251.413 228.566 250.963 228.566C250.513 228.566 250.153 228.341 250.153 228.116C250.153 227.847 249.749 227.667 249.254 227.667C248.759 227.667 248.354 227.442 248.354 227.217C248.354 226.947 247.995 226.767 247.545 226.767C247.095 226.767 246.466 226.362 246.106 225.868C245.746 225.373 245.116 224.968 244.667 224.968C244.217 224.968 243.857 224.743 243.857 224.519C243.857 224.249 243.452 224.069 242.958 224.069C242.463 224.069 242.058 223.844 242.058 223.619C242.058 223.349 241.698 223.169 241.249 223.169C240.799 223.169 240.169 222.765 239.809 222.27C239.45 221.775 238.82 221.37 238.37 221.37C237.921 221.37 237.561 221.146 237.561 220.921C237.561 220.651 237.201 220.471 236.751 220.471C236.302 220.471 235.672 220.066 235.312 219.571C234.952 219.077 234.323 218.672 233.873 218.672C233.423 218.672 233.063 218.447 233.063 218.222C233.063 217.952 232.659 217.772 232.164 217.772C231.669 217.772 231.265 217.548 231.265 217.323C231.265 217.053 230.905 216.873 230.455 216.873C230.005 216.873 229.376 216.468 229.016 215.974C228.656 215.479 228.026 215.074 227.577 215.074C227.127 215.074 226.767 214.849 226.767 214.624C226.767 214.355 226.362 214.175 225.868 214.175C225.373 214.175 224.968 213.95 224.968 213.725C224.968 213.455 224.653 213.275 224.294 213.275C223.169 213.275 221.37 211.206 221.37 209.902C221.37 209.273 221.595 208.778 221.82 208.778C222.09 208.778 222.27 207.564 222.27 206.079C222.27 204.595 222.45 203.381 222.72 203.381C222.989 203.381 223.169 202.347 223.169 201.132C223.169 199.873 223.394 198.884 223.619 198.884C223.889 198.884 224.069 198.074 224.069 197.085C224.069 196.095 224.294 195.286 224.518 195.286C224.788 195.286 224.968 194.476 224.968 193.487C224.968 192.497 225.193 191.688 225.418 191.688C225.688 191.688 225.868 191.058 225.868 190.339C225.868 189.574 225.958 188.989 226.093 188.989C226.227 188.989 227.757 190.384 229.466 192.138ZM221.37 235.312C221.37 235.537 222 235.762 222.72 235.762C223.484 235.762 224.069 235.942 224.069 236.212C224.069 236.437 224.474 236.661 224.968 236.661C225.463 236.661 225.868 236.841 225.868 237.111C225.868 237.336 226.272 237.561 226.767 237.561C227.262 237.561 227.667 237.741 227.667 238.011C227.667 238.235 228.071 238.46 228.566 238.46C229.061 238.46 229.466 238.64 229.466 238.91C229.466 239.135 229.87 239.36 230.365 239.36C230.86 239.36 231.265 239.54 231.265 239.81C231.265 240.034 231.669 240.259 232.164 240.259C232.659 240.259 233.063 240.439 233.063 240.709C233.063 240.934 233.468 241.159 233.963 241.159C234.458 241.159 234.862 241.339 234.862 241.608C234.862 241.833 235.267 242.058 235.762 242.058C236.257 242.058 236.661 242.238 236.661 242.508C236.661 242.733 237.066 242.958 237.561 242.958C238.056 242.958 238.46 243.138 238.46 243.407C238.46 243.632 238.865 243.857 239.36 243.857C239.854 243.857 240.259 244.037 240.259 244.307C240.259 244.532 240.664 244.757 241.159 244.757C241.653 244.757 242.058 244.937 242.058 245.206C242.058 245.431 242.463 245.656 242.958 245.656C243.452 245.656 243.857 245.836 243.857 246.106C243.857 246.331 244.262 246.556 244.757 246.556C245.251 246.556 245.656 246.735 245.656 247.005C245.656 247.23 246.061 247.455 246.556 247.455C247.05 247.455 247.455 247.635 247.455 247.905C247.455 248.13 247.86 248.355 248.354 248.355C248.849 248.355 249.254 248.534 249.254 248.804C249.254 249.029 249.659 249.254 250.153 249.254C250.648 249.254 251.053 249.434 251.053 249.704C251.053 249.929 251.458 250.153 251.952 250.153C252.447 250.153 252.852 250.333 252.852 250.603C252.852 250.828 253.257 251.053 253.751 251.053C254.246 251.053 254.651 251.233 254.651 251.503C254.651 251.728 255.056 251.952 255.55 251.952C256.045 251.952 256.45 252.132 256.45 252.402C256.45 252.627 256.854 252.852 257.349 252.852C257.844 252.852 258.249 253.032 258.249 253.302C258.249 253.526 258.878 253.751 259.598 253.751C260.362 253.751 260.947 253.931 260.947 254.201C260.947 254.426 261.352 254.651 261.847 254.651C262.341 254.651 262.746 254.831 262.746 255.101C262.746 255.325 263.151 255.55 263.645 255.55C264.14 255.55 264.545 255.73 264.545 256C264.545 256.225 264.95 256.45 265.444 256.45C265.939 256.45 266.344 256.63 266.344 256.899C266.344 257.124 266.749 257.349 267.243 257.349C267.738 257.349 268.143 257.529 268.143 257.799C268.143 258.024 268.548 258.249 269.042 258.249C269.537 258.249 269.942 258.429 269.942 258.698C269.942 258.923 269.537 259.148 269.042 259.148C268.548 259.148 268.143 258.923 268.143 258.698C268.143 258.429 267.333 258.249 266.344 258.249C265.354 258.249 264.545 258.024 264.545 257.799C264.545 257.529 263.96 257.349 263.196 257.349C262.476 257.349 261.847 257.124 261.847 256.899C261.847 256.63 261.037 256.45 260.048 256.45C259.058 256.45 258.249 256.225 258.249 256C258.249 255.73 257.439 255.55 256.45 255.55C255.46 255.55 254.651 255.325 254.651 255.101C254.651 254.831 253.841 254.651 252.852 254.651C251.862 254.651 251.053 254.426 251.053 254.201C251.053 253.931 250.468 253.751 249.704 253.751C248.984 253.751 248.354 253.526 248.354 253.302C248.354 253.032 247.545 252.852 246.556 252.852C245.566 252.852 244.757 252.627 244.757 252.402C244.757 252.132 243.947 251.952 242.958 251.952C241.968 251.952 241.159 251.728 241.159 251.503C241.159 251.233 240.349 251.053 239.36 251.053C238.37 251.053 237.561 250.828 237.561 250.603C237.561 250.333 236.976 250.153 236.212 250.153C235.492 250.153 234.862 249.929 234.862 249.704C234.862 249.434 234.053 249.254 233.063 249.254C232.074 249.254 231.265 249.029 231.265 248.804C231.265 248.534 230.455 248.355 229.466 248.355C228.476 248.355 227.667 248.13 227.667 247.905C227.667 247.635 227.082 247.455 226.317 247.455C225.598 247.455 224.968 247.23 224.968 247.005C224.968 246.735 224.249 246.556 223.349 246.556C221.325 246.556 220.471 245.701 220.471 243.677C220.471 242.778 220.291 242.058 220.021 242.058C219.751 242.058 219.571 240.574 219.571 238.46C219.571 235.177 219.661 234.862 220.471 234.862C220.966 234.862 221.37 235.042 221.37 235.312ZM228.566 264.995C228.566 265.22 229.601 265.444 230.815 265.444C232.074 265.444 233.063 265.624 233.063 265.894C233.063 266.119 234.098 266.344 235.312 266.344C236.571 266.344 237.561 266.524 237.561 266.794C237.561 267.063 238.775 267.243 240.259 267.243C241.743 267.243 242.958 267.423 242.958 267.693C242.958 267.918 243.992 268.143 245.206 268.143C246.466 268.143 247.455 268.323 247.455 268.593C247.455 268.817 248.489 269.042 249.704 269.042C250.963 269.042 251.952 269.222 251.952 269.492C251.952 269.717 252.987 269.942 254.201 269.942C255.46 269.942 256.45 270.122 256.45 270.392C256.45 270.661 251.053 270.841 241.159 270.841H225.868V269.492C225.868 268.728 225.688 268.143 225.418 268.143C225.193 268.143 224.968 267.513 224.968 266.794C224.968 266.029 224.788 265.444 224.518 265.444C224.294 265.444 224.069 265.22 224.069 264.995C224.069 264.725 225.103 264.545 226.317 264.545C227.577 264.545 228.566 264.725 228.566 264.995ZM197.984 319.233C197.984 376.664 198.119 373.381 195.556 373.381C194.926 373.381 194.386 373.561 194.386 373.831C194.386 374.056 193.981 374.28 193.487 374.28C192.992 374.28 192.587 374.46 192.587 374.73C192.587 374.955 192.003 375.18 191.238 375.18C190.518 375.18 189.889 375.36 189.889 375.63C189.889 375.854 189.304 376.079 188.54 376.079C187.82 376.079 187.19 376.259 187.19 376.529C187.19 376.754 186.606 376.979 185.841 376.979C185.122 376.979 184.492 377.159 184.492 377.429C184.492 377.653 183.907 377.878 183.143 377.878C182.423 377.878 181.794 378.058 181.794 378.328C181.794 378.553 181.209 378.778 180.444 378.778C179.725 378.778 179.095 378.958 179.095 379.228C179.095 379.452 178.286 379.677 177.296 379.677C175.812 379.677 175.497 379.542 175.497 378.778C175.497 378.283 175.722 377.878 175.947 377.878C176.217 377.878 176.397 376.844 176.397 375.63C176.397 374.37 176.622 373.381 176.847 373.381C177.116 373.381 177.296 372.167 177.296 370.683C177.296 369.198 177.476 367.984 177.746 367.984C178.016 367.984 178.196 366.95 178.196 365.735C178.196 364.476 178.421 363.487 178.645 363.487C178.915 363.487 179.095 362.452 179.095 361.238C179.095 359.979 179.32 358.989 179.545 358.989C179.815 358.989 179.995 357.955 179.995 356.741C179.995 355.481 180.22 354.492 180.444 354.492C180.714 354.492 180.894 353.458 180.894 352.243C180.894 350.984 181.119 349.995 181.344 349.995C181.614 349.995 181.794 348.96 181.794 347.746C181.794 346.487 182.018 345.497 182.243 345.497C182.513 345.497 182.693 344.463 182.693 343.249C182.693 341.989 182.918 341 183.143 341C183.413 341 183.593 339.786 183.593 338.302C183.593 336.817 183.772 335.603 184.042 335.603C184.312 335.603 184.492 334.569 184.492 333.354C184.492 332.095 184.717 331.106 184.942 331.106C185.212 331.106 185.392 330.071 185.392 328.857C185.392 327.598 185.616 326.608 185.841 326.608C186.111 326.608 186.291 325.574 186.291 324.36C186.291 323.101 186.516 322.111 186.741 322.111C187.011 322.111 187.19 321.077 187.19 319.862C187.19 318.603 187.415 317.614 187.64 317.614C187.91 317.614 188.09 316.579 188.09 315.365C188.09 314.106 188.315 313.116 188.54 313.116C188.809 313.116 188.989 312.082 188.989 310.868C188.989 309.608 189.214 308.619 189.439 308.619C189.709 308.619 189.889 307.405 189.889 305.921C189.889 304.437 190.069 303.222 190.339 303.222C190.608 303.222 190.788 302.188 190.788 300.974C190.788 299.714 191.013 298.725 191.238 298.725C191.508 298.725 191.688 297.69 191.688 296.476C191.688 295.217 191.913 294.228 192.138 294.228C192.407 294.228 192.587 293.193 192.587 291.979C192.587 290.72 192.812 289.73 193.037 289.73C193.307 289.73 193.487 288.696 193.487 287.481C193.487 286.222 193.712 285.233 193.936 285.233C194.206 285.233 194.386 284.198 194.386 282.984C194.386 281.725 194.611 280.735 194.836 280.735C195.106 280.735 195.286 279.701 195.286 278.487C195.286 277.228 195.511 276.238 195.735 276.238C196.005 276.238 196.185 275.024 196.185 273.54C196.185 272.056 196.365 270.841 196.635 270.841C196.905 270.841 197.085 269.807 197.085 268.593C197.085 267.333 197.309 266.344 197.534 266.344C197.849 266.344 197.984 284.288 197.984 319.233ZM179.995 268.593C179.995 269.312 179.815 269.942 179.545 269.942C179.32 269.942 179.095 270.751 179.095 271.741C179.095 272.73 178.915 273.54 178.645 273.54C178.421 273.54 178.196 274.124 178.196 274.889C178.196 275.608 178.016 276.238 177.746 276.238C177.521 276.238 177.296 277.048 177.296 278.037C177.296 279.026 177.116 279.836 176.847 279.836C176.622 279.836 176.397 280.646 176.397 281.635C176.397 282.624 176.217 283.434 175.947 283.434C175.722 283.434 175.497 284.243 175.497 285.233C175.497 286.222 175.317 287.032 175.048 287.032C174.823 287.032 174.598 287.616 174.598 288.381C174.598 289.101 174.418 289.73 174.148 289.73C173.923 289.73 173.698 290.54 173.698 291.529C173.698 292.519 173.518 293.328 173.249 293.328C173.024 293.328 172.799 294.138 172.799 295.127C172.799 296.116 172.619 296.926 172.349 296.926C172.124 296.926 171.899 297.511 171.899 298.275C171.899 298.995 171.72 299.624 171.45 299.624C171.225 299.624 171 300.434 171 301.423C171 302.413 170.82 303.222 170.55 303.222C170.325 303.222 170.101 304.032 170.101 305.021C170.101 306.011 169.921 306.82 169.651 306.82C169.426 306.82 169.201 307.63 169.201 308.619C169.201 309.608 169.021 310.418 168.751 310.418C168.526 310.418 168.302 311.003 168.302 311.767C168.302 312.487 168.122 313.116 167.852 313.116C167.627 313.116 167.402 313.926 167.402 314.915C167.402 315.905 167.222 316.714 166.952 316.714C166.727 316.714 166.503 317.524 166.503 318.513C166.503 319.503 166.323 320.312 166.053 320.312C165.828 320.312 165.603 321.122 165.603 322.111C165.603 323.101 165.423 323.91 165.153 323.91C164.929 323.91 164.704 324.495 164.704 325.259C164.704 325.979 164.524 326.608 164.254 326.608C164.029 326.608 163.804 327.418 163.804 328.407C163.804 329.397 163.624 330.206 163.354 330.206C163.13 330.206 162.905 331.016 162.905 332.005C162.905 332.995 162.725 333.804 162.455 333.804C162.23 333.804 162.005 334.389 162.005 335.153C162.005 335.873 161.825 336.503 161.556 336.503C161.331 336.503 161.106 337.312 161.106 338.302C161.106 339.291 160.926 340.101 160.656 340.101C160.431 340.101 160.206 340.91 160.206 341.899C160.206 342.889 160.026 343.698 159.757 343.698C159.532 343.698 159.307 344.508 159.307 345.497C159.307 346.487 159.127 347.296 158.857 347.296C158.632 347.296 158.407 347.881 158.407 348.646C158.407 349.365 158.227 349.995 157.958 349.995C157.733 349.995 157.508 350.804 157.508 351.794C157.508 352.783 157.328 353.593 157.058 353.593C156.833 353.593 156.608 354.402 156.608 355.392C156.608 356.381 156.429 357.19 156.159 357.19C155.934 357.19 155.709 358 155.709 358.989C155.709 359.979 155.529 360.788 155.259 360.788C155.034 360.788 154.809 361.373 154.809 362.138C154.809 362.857 154.63 363.487 154.36 363.487C154.135 363.487 153.91 364.296 153.91 365.286C153.91 366.275 153.73 367.085 153.46 367.085C153.235 367.085 153.011 367.894 153.011 368.884C153.011 369.873 152.831 370.683 152.561 370.683C152.336 370.683 152.111 371.492 152.111 372.481C152.111 373.471 151.931 374.28 151.661 374.28C151.436 374.28 151.212 374.865 151.212 375.63C151.212 376.349 151.032 376.979 150.762 376.979C150.537 376.979 150.312 377.698 150.312 378.598C150.312 381.521 150.672 381.476 133.672 381.476H118.336L117.257 380.352C116.132 379.228 115.638 376.079 116.582 376.079C116.852 376.079 117.032 375.675 117.032 375.18C117.032 374.685 117.257 374.28 117.481 374.28C117.751 374.28 117.931 373.921 117.931 373.471C117.931 373.021 118.336 372.392 118.831 372.032C119.325 371.672 119.73 371.042 119.73 370.593C119.73 370.143 119.955 369.783 120.18 369.783C120.45 369.783 120.63 369.378 120.63 368.884C120.63 368.389 120.854 367.984 121.079 367.984C121.349 367.984 121.529 367.624 121.529 367.175C121.529 366.725 121.934 366.095 122.429 365.735C122.923 365.376 123.328 364.746 123.328 364.296C123.328 363.847 123.553 363.487 123.778 363.487C124.048 363.487 124.227 363.127 124.227 362.677C124.227 362.228 124.632 361.598 125.127 361.238C125.622 360.878 126.026 360.249 126.026 359.799C126.026 359.349 126.251 358.989 126.476 358.989C126.746 358.989 126.926 358.585 126.926 358.09C126.926 357.595 127.151 357.19 127.376 357.19C127.645 357.19 127.825 356.831 127.825 356.381C127.825 355.931 128.23 355.302 128.725 354.942C129.22 354.582 129.624 353.952 129.624 353.503C129.624 353.053 129.849 352.693 130.074 352.693C130.344 352.693 130.524 352.288 130.524 351.794C130.524 351.299 130.749 350.894 130.974 350.894C131.243 350.894 131.423 350.534 131.423 350.085C131.423 349.635 131.828 349.005 132.323 348.646C132.817 348.286 133.222 347.656 133.222 347.206C133.222 346.757 133.447 346.397 133.672 346.397C133.942 346.397 134.122 345.992 134.122 345.497C134.122 345.003 134.347 344.598 134.571 344.598C134.841 344.598 135.021 344.238 135.021 343.788C135.021 343.339 135.426 342.709 135.921 342.349C136.415 341.989 136.82 341.36 136.82 340.91C136.82 340.46 137.045 340.101 137.27 340.101C137.54 340.101 137.72 339.741 137.72 339.291C137.72 338.841 138.124 338.212 138.619 337.852C139.114 337.492 139.518 336.862 139.518 336.413C139.518 335.963 139.743 335.603 139.968 335.603C140.238 335.603 140.418 335.198 140.418 334.704C140.418 334.209 140.643 333.804 140.868 333.804C141.138 333.804 141.317 333.444 141.317 332.995C141.317 332.545 141.722 331.915 142.217 331.556C142.712 331.196 143.116 330.566 143.116 330.116C143.116 329.667 143.341 329.307 143.566 329.307C143.836 329.307 144.016 328.902 144.016 328.407C144.016 327.913 144.241 327.508 144.466 327.508C144.735 327.508 144.915 327.148 144.915 326.698C144.915 326.249 145.32 325.619 145.815 325.259C146.309 324.899 146.714 324.27 146.714 323.82C146.714 323.37 146.939 323.011 147.164 323.011C147.434 323.011 147.614 322.606 147.614 322.111C147.614 321.616 147.839 321.212 148.063 321.212C148.333 321.212 148.513 320.852 148.513 320.402C148.513 319.952 148.918 319.323 149.413 318.963C149.907 318.603 150.312 317.974 150.312 317.524C150.312 317.074 150.537 316.714 150.762 316.714C151.032 316.714 151.212 316.354 151.212 315.905C151.212 315.455 151.616 314.825 152.111 314.466C152.606 314.106 153.011 313.476 153.011 313.026C153.011 312.577 153.235 312.217 153.46 312.217C153.73 312.217 153.91 311.812 153.91 311.317C153.91 310.823 154.135 310.418 154.36 310.418C154.63 310.418 154.809 310.058 154.809 309.608C154.809 309.159 155.214 308.529 155.709 308.169C156.204 307.81 156.608 307.18 156.608 306.73C156.608 306.28 156.833 305.921 157.058 305.921C157.328 305.921 157.508 305.516 157.508 305.021C157.508 304.526 157.733 304.122 157.958 304.122C158.227 304.122 158.407 303.762 158.407 303.312C158.407 302.862 158.812 302.233 159.307 301.873C159.802 301.513 160.206 300.884 160.206 300.434C160.206 299.984 160.431 299.624 160.656 299.624C160.926 299.624 161.106 299.22 161.106 298.725C161.106 298.23 161.331 297.825 161.556 297.825C161.825 297.825 162.005 297.466 162.005 297.016C162.005 296.566 162.41 295.937 162.905 295.577C163.399 295.217 163.804 294.587 163.804 294.138C163.804 293.688 164.029 293.328 164.254 293.328C164.524 293.328 164.704 292.968 164.704 292.519C164.704 292.069 165.108 291.439 165.603 291.079C166.098 290.72 166.503 290.09 166.503 289.64C166.503 289.19 166.727 288.831 166.952 288.831C167.222 288.831 167.402 288.426 167.402 287.931C167.402 287.437 167.627 287.032 167.852 287.032C168.122 287.032 168.302 286.672 168.302 286.222C168.302 285.772 168.706 285.143 169.201 284.783C169.696 284.423 170.101 283.794 170.101 283.344C170.101 282.894 170.325 282.534 170.55 282.534C170.82 282.534 171 282.13 171 281.635C171 281.14 171.225 280.735 171.45 280.735C171.72 280.735 171.899 280.376 171.899 279.926C171.899 279.476 172.304 278.847 172.799 278.487C173.294 278.127 173.698 277.497 173.698 277.048C173.698 276.598 173.923 276.238 174.148 276.238C174.418 276.238 174.598 275.878 174.598 275.429C174.598 274.979 175.003 274.349 175.497 273.989C175.992 273.63 176.397 273 176.397 272.55C176.397 272.101 176.622 271.741 176.847 271.741C177.116 271.741 177.296 271.336 177.296 270.841C177.296 270.347 177.521 269.942 177.746 269.942C178.016 269.942 178.196 269.627 178.196 269.267C178.196 268.503 179.095 267.288 179.68 267.243C179.86 267.243 179.995 267.828 179.995 268.593ZM272.64 285.683C272.64 285.907 272.955 286.132 273.36 286.132C274.259 286.132 275.339 287.212 275.339 288.111C275.339 288.516 275.563 288.831 275.788 288.831C276.058 288.831 276.238 289.64 276.238 290.63C276.238 291.619 276.058 292.429 275.788 292.429C275.563 292.429 275.339 292.833 275.339 293.328C275.339 293.823 275.159 294.228 274.889 294.228C274.664 294.228 274.439 294.632 274.439 295.127C274.439 295.622 274.259 296.026 273.989 296.026C273.765 296.026 273.54 296.386 273.54 296.836C273.54 297.286 273.135 297.915 272.64 298.275C272.145 298.635 271.741 299.265 271.741 299.714C271.741 300.164 271.561 300.524 271.291 300.524C271.066 300.524 270.841 300.929 270.841 301.423C270.841 301.918 270.661 302.323 270.392 302.323C270.167 302.323 269.942 302.683 269.942 303.132C269.942 303.582 269.537 304.212 269.042 304.571C268.548 304.931 268.143 305.561 268.143 306.011C268.143 306.46 267.963 306.82 267.693 306.82C267.468 306.82 267.243 307.18 267.243 307.63C267.243 308.079 266.839 308.709 266.344 309.069C265.849 309.429 265.444 310.058 265.444 310.508C265.444 310.958 265.265 311.317 264.995 311.317C264.77 311.317 264.545 311.722 264.545 312.217C264.545 312.712 264.365 313.116 264.095 313.116C263.87 313.116 263.645 313.476 263.645 313.926C263.645 314.376 263.241 315.005 262.746 315.365C262.251 315.725 261.847 316.354 261.847 316.804C261.847 317.254 261.667 317.614 261.397 317.614C261.172 317.614 260.947 317.929 260.947 318.288C260.947 319.188 258.923 321.212 258.024 321.212C257.664 321.212 257.349 321.392 257.349 321.661C257.349 321.886 256.765 322.111 256 322.111C255.28 322.111 254.651 321.886 254.651 321.661C254.651 321.392 254.336 321.212 253.976 321.212C253.077 321.212 251.053 319.188 251.053 318.288C251.053 317.929 250.873 317.614 250.603 317.614C250.378 317.614 250.153 317.254 250.153 316.804C250.153 316.354 249.749 315.725 249.254 315.365C248.759 315.005 248.354 314.376 248.354 313.926C248.354 313.476 248.175 313.116 247.905 313.116C247.68 313.116 247.455 312.712 247.455 312.217C247.455 311.722 247.275 311.317 247.005 311.317C246.78 311.317 246.556 310.958 246.556 310.508C246.556 310.058 246.151 309.429 245.656 309.069C245.161 308.709 244.757 308.079 244.757 307.63C244.757 307.18 244.577 306.82 244.307 306.82C244.082 306.82 243.857 306.46 243.857 306.011C243.857 305.561 243.452 304.931 242.958 304.571C242.463 304.212 242.058 303.582 242.058 303.132C242.058 302.683 241.878 302.323 241.608 302.323C241.384 302.323 241.159 301.918 241.159 301.423C241.159 300.929 240.979 300.524 240.709 300.524C240.484 300.524 240.259 300.164 240.259 299.714C240.259 299.265 239.854 298.635 239.36 298.275C238.865 297.915 238.46 297.286 238.46 296.836C238.46 296.386 238.28 296.026 238.011 296.026C237.786 296.026 237.561 295.622 237.561 295.127C237.561 294.632 237.381 294.228 237.111 294.228C236.886 294.228 236.661 293.823 236.661 293.328C236.661 292.833 236.481 292.429 236.212 292.429C235.987 292.429 235.762 291.619 235.762 290.63C235.762 289.64 235.987 288.831 236.212 288.831C236.481 288.831 236.661 288.516 236.661 288.111C236.661 287.212 237.741 286.132 238.64 286.132C239.045 286.132 239.36 285.907 239.36 285.683C239.36 285.413 245.206 285.233 256 285.233C266.794 285.233 272.64 285.413 272.64 285.683ZM299.624 288.381C299.624 288.606 300.029 288.831 300.524 288.831C302.098 288.831 301.513 290.135 298.725 292.878C297.241 294.317 296.026 295.757 296.026 296.026C296.026 296.296 294.632 297.915 292.878 299.624C291.169 301.333 289.73 302.952 289.73 303.222C289.73 303.492 288.516 304.931 287.032 306.37C285.548 307.81 284.333 309.249 284.333 309.519C284.333 310.238 281.185 313.251 280.825 312.892C280.645 312.712 280.78 312.442 281.095 312.352C281.365 312.217 281.635 311.767 281.635 311.272C281.635 310.823 281.86 310.418 282.085 310.418C282.354 310.418 282.534 310.058 282.534 309.608C282.534 309.159 282.939 308.529 283.434 308.169C283.929 307.81 284.333 307.18 284.333 306.73C284.333 306.28 284.558 305.921 284.783 305.921C285.053 305.921 285.233 305.516 285.233 305.021C285.233 304.526 285.458 304.122 285.683 304.122C285.952 304.122 286.132 303.762 286.132 303.312C286.132 302.862 286.537 302.233 287.032 301.873C287.526 301.513 287.931 300.884 287.931 300.434C287.931 299.984 288.156 299.624 288.381 299.624C288.651 299.624 288.831 299.265 288.831 298.815C288.831 298.365 289.235 297.735 289.73 297.376C290.225 297.016 290.63 296.386 290.63 295.937C290.63 295.487 290.854 295.127 291.079 295.127C291.349 295.127 291.529 294.722 291.529 294.228C291.529 293.733 291.754 293.328 291.979 293.328C292.249 293.328 292.429 292.968 292.429 292.519C292.429 292.069 292.833 291.439 293.328 291.079C293.823 290.72 294.227 290.18 294.227 289.82C294.227 288.606 295.352 287.976 297.511 287.931C298.68 287.931 299.624 288.111 299.624 288.381ZM320.312 295.577C320.312 295.802 320.942 296.026 321.661 296.026C322.426 296.026 323.011 296.206 323.011 296.476C323.011 296.701 323.415 296.926 323.91 296.926C324.405 296.926 324.809 297.106 324.809 297.376C324.809 297.601 325.169 297.825 325.619 297.825C326.069 297.825 326.698 298.23 327.058 298.725C327.418 299.22 328.048 299.624 328.497 299.624C328.992 299.624 329.307 299.939 329.307 300.524C329.307 301.108 328.992 301.423 328.497 301.423C328.048 301.423 327.418 301.828 327.058 302.323C326.698 302.817 326.114 303.222 325.709 303.222C325.304 303.222 324.72 303.627 324.36 304.122C324 304.616 323.415 305.021 323.011 305.021C322.606 305.021 322.021 305.426 321.661 305.921C321.302 306.415 320.717 306.82 320.312 306.82C319.907 306.82 319.323 307.225 318.963 307.72C318.603 308.214 318.018 308.619 317.614 308.619C317.209 308.619 316.624 309.024 316.265 309.519C315.905 310.013 315.32 310.418 314.915 310.418C314.511 310.418 313.926 310.823 313.566 311.317C313.206 311.812 312.622 312.217 312.307 312.217C311.947 312.217 311.093 312.802 310.418 313.566C309.743 314.286 308.889 314.915 308.529 314.915C308.214 314.915 307.63 315.32 307.27 315.815C306.91 316.31 306.325 316.714 305.921 316.714C305.516 316.714 304.931 317.119 304.571 317.614C304.212 318.108 303.627 318.513 303.222 318.513C302.817 318.513 302.233 318.918 301.873 319.413C301.513 319.907 300.929 320.312 300.524 320.312C300.119 320.312 299.534 320.717 299.175 321.212C298.815 321.706 298.23 322.111 297.825 322.111C297.421 322.111 296.836 322.516 296.476 323.011C296.116 323.505 295.532 323.91 295.127 323.91C294.722 323.91 294.138 324.315 293.778 324.81C293.418 325.304 292.833 325.709 292.429 325.709C292.024 325.709 291.439 326.114 291.079 326.608C290.72 327.103 290.135 327.508 289.73 327.508C289.325 327.508 288.741 327.913 288.381 328.407C288.021 328.902 287.436 329.307 287.077 329.307C286.762 329.307 286.087 329.757 285.638 330.296C285.143 330.791 284.648 331.151 284.513 330.971C284.243 330.701 319.368 295.217 319.997 295.172C320.177 295.127 320.312 295.307 320.312 295.577ZM215.074 309.519C215.074 310.508 215.299 311.317 215.524 311.317C215.794 311.317 215.974 312.127 215.974 313.116C215.974 314.106 216.198 314.915 216.423 314.915C216.693 314.915 216.873 315.725 216.873 316.714C216.873 317.704 217.098 318.513 217.323 318.513C217.593 318.513 217.772 319.098 217.772 319.862C217.772 320.582 217.997 321.212 218.222 321.212C218.492 321.212 218.672 322.021 218.672 323.011C218.672 324 218.897 324.81 219.122 324.81C219.391 324.81 219.571 325.619 219.571 326.608C219.571 327.598 219.796 328.407 220.021 328.407C220.291 328.407 220.471 328.992 220.471 329.757C220.471 330.476 220.696 331.106 220.921 331.106C221.19 331.106 221.37 331.915 221.37 332.905C221.37 333.894 221.595 334.704 221.82 334.704C222.09 334.704 222.27 335.513 222.27 336.503C222.27 337.492 222.495 338.302 222.72 338.302C222.989 338.302 223.169 339.111 223.169 340.101C223.169 341.09 223.394 341.899 223.619 341.899C223.889 341.899 224.069 342.484 224.069 343.249C224.069 343.968 224.294 344.598 224.518 344.598C224.788 344.598 224.968 345.407 224.968 346.397C224.968 347.386 225.193 348.196 225.418 348.196C225.688 348.196 225.868 349.005 225.868 349.995C225.868 350.984 226.093 351.794 226.317 351.794C226.587 351.794 226.767 352.603 226.767 353.548C226.767 354.537 226.992 355.392 227.307 355.481C227.981 355.706 225.733 358.09 224.878 358.09C224.518 358.09 223.979 358.495 223.619 358.989C223.259 359.484 222.675 359.889 222.27 359.889C221.865 359.889 221.28 360.294 220.921 360.788C220.561 361.283 219.931 361.688 219.481 361.688C219.032 361.688 218.672 361.868 218.672 362.138C218.672 362.362 218.492 362.587 218.222 362.587C217.952 362.587 217.772 361.373 217.772 359.889C217.772 358.405 217.593 357.19 217.323 357.19C217.053 357.19 216.873 354.807 216.873 350.894C216.873 346.981 216.693 344.598 216.423 344.598C216.153 344.598 215.974 342.214 215.974 338.302C215.974 334.389 215.794 332.005 215.524 332.005C215.254 332.005 215.074 329.442 215.074 325.259C215.074 321.077 214.894 318.513 214.624 318.513C214.354 318.513 214.175 316.399 214.175 313.116C214.175 309.833 214.354 307.72 214.624 307.72C214.894 307.72 215.074 308.529 215.074 309.519ZM349.095 313.566C349.095 313.791 349.41 314.016 349.815 314.016C350.175 314.016 351.299 314.825 352.243 315.815C353.188 316.804 354.177 317.614 354.492 317.614C354.762 317.614 356.786 319.413 358.989 321.661C361.193 323.865 363.217 325.709 363.487 325.709C363.757 325.709 364.476 326.204 365.106 326.833C366.095 327.823 366.14 328.048 365.556 328.632C365.196 328.992 364.386 329.307 363.757 329.307C363.127 329.307 362.587 329.487 362.587 329.757C362.587 329.981 362.003 330.206 361.238 330.206C360.518 330.206 359.889 330.386 359.889 330.656C359.889 330.881 359.304 331.106 358.54 331.106C357.82 331.106 357.19 331.286 357.19 331.556C357.19 331.78 356.606 332.005 355.841 332.005C355.122 332.005 354.492 332.185 354.492 332.455C354.492 332.68 353.907 332.905 353.143 332.905C352.423 332.905 351.794 333.085 351.794 333.354C351.794 333.579 351.209 333.804 350.444 333.804C349.725 333.804 349.095 333.984 349.095 334.254C349.095 334.479 348.511 334.704 347.746 334.704C347.026 334.704 346.397 334.884 346.397 335.153C346.397 335.378 345.812 335.603 345.048 335.603C344.328 335.603 343.698 335.783 343.698 336.053C343.698 336.278 343.114 336.503 342.349 336.503C341.63 336.503 341 336.683 341 336.952C341 337.177 340.595 337.402 340.1 337.402C339.606 337.402 339.201 337.582 339.201 337.852C339.201 338.077 338.616 338.302 337.852 338.302C337.132 338.302 336.503 338.481 336.503 338.751C336.503 338.976 335.918 339.201 335.153 339.201C334.434 339.201 333.804 339.381 333.804 339.651C333.804 339.876 333.22 340.101 332.455 340.101C331.735 340.101 331.106 340.28 331.106 340.55C331.106 340.775 330.521 341 329.757 341C329.037 341 328.407 341.18 328.407 341.45C328.407 341.675 327.823 341.899 327.058 341.899C326.339 341.899 325.709 342.079 325.709 342.349C325.709 342.574 325.124 342.799 324.36 342.799C323.64 342.799 323.011 342.979 323.011 343.249C323.011 343.474 322.426 343.698 321.661 343.698C320.942 343.698 320.312 343.878 320.312 344.148C320.312 344.373 319.727 344.598 318.963 344.598C318.243 344.598 317.614 344.778 317.614 345.048C317.614 345.272 317.029 345.497 316.265 345.497C315.545 345.497 314.915 345.677 314.915 345.947C314.915 346.172 314.511 346.397 314.016 346.397C313.521 346.397 313.116 346.577 313.116 346.847C313.116 347.071 312.532 347.296 311.767 347.296C311.048 347.296 310.418 347.476 310.418 347.746C310.418 347.971 309.833 348.196 309.069 348.196C308.349 348.196 307.72 348.376 307.72 348.646C307.72 348.87 307.135 349.095 306.37 349.095C305.651 349.095 305.021 349.275 305.021 349.545C305.021 349.77 304.436 349.995 303.672 349.995C302.952 349.995 302.323 350.175 302.323 350.444C302.323 350.669 301.738 350.894 300.974 350.894C300.254 350.894 299.624 351.074 299.624 351.344C299.624 351.569 299.04 351.794 298.275 351.794C297.556 351.794 296.926 351.974 296.926 352.243C296.926 352.468 296.341 352.693 295.577 352.693C294.857 352.693 294.227 352.873 294.227 353.143C294.227 353.368 293.643 353.593 292.878 353.593C292.159 353.593 291.529 353.772 291.529 354.042C291.529 354.267 290.944 354.492 290.18 354.492C289.46 354.492 288.831 354.672 288.831 354.942C288.831 355.167 288.246 355.392 287.481 355.392C286.762 355.392 286.132 355.571 286.132 355.841C286.132 356.066 285.727 356.291 285.233 356.291C284.738 356.291 284.333 356.471 284.333 356.741C284.333 356.966 283.749 357.19 282.984 357.19C282.265 357.19 281.635 357.37 281.635 357.64C281.635 357.865 281.05 358.09 280.286 358.09C279.566 358.09 278.936 358.27 278.936 358.54C278.936 358.765 278.352 358.989 277.587 358.989C276.868 358.989 276.238 359.169 276.238 359.439C276.238 359.664 275.653 359.889 274.889 359.889C274.169 359.889 273.54 360.069 273.54 360.339C273.54 360.563 272.955 360.788 272.19 360.788C271.471 360.788 270.841 360.968 270.841 361.238C270.841 361.463 270.257 361.688 269.492 361.688C268.772 361.688 268.143 361.868 268.143 362.138C268.143 362.362 267.558 362.587 266.794 362.587C266.074 362.587 265.444 362.767 265.444 363.037C265.444 363.262 264.86 363.487 264.095 363.487C263.376 363.487 262.746 363.667 262.746 363.937C262.746 364.161 262.341 364.386 261.847 364.386C261.352 364.386 260.947 364.161 260.947 363.937C260.947 363.667 261.307 363.487 261.757 363.487C262.206 363.487 262.836 363.082 263.196 362.587C263.556 362.093 264.185 361.688 264.635 361.688C265.085 361.688 265.444 361.463 265.444 361.238C265.444 360.968 265.849 360.788 266.344 360.788C266.839 360.788 267.243 360.563 267.243 360.339C267.243 360.069 267.603 359.889 268.053 359.889C268.503 359.889 269.132 359.484 269.492 358.989C269.852 358.495 270.481 358.09 270.931 358.09C271.381 358.09 271.741 357.865 271.741 357.64C271.741 357.37 272.145 357.19 272.64 357.19C273.135 357.19 273.54 356.966 273.54 356.741C273.54 356.471 273.899 356.291 274.349 356.291C274.799 356.291 275.429 355.886 275.788 355.392C276.148 354.897 276.778 354.492 277.227 354.492C277.677 354.492 278.037 354.267 278.037 354.042C278.037 353.772 278.397 353.593 278.847 353.593C279.296 353.593 279.926 353.188 280.286 352.693C280.645 352.198 281.275 351.794 281.725 351.794C282.175 351.794 282.534 351.569 282.534 351.344C282.534 351.074 282.939 350.894 283.434 350.894C283.929 350.894 284.333 350.669 284.333 350.444C284.333 350.175 284.693 349.995 285.143 349.995C285.593 349.995 286.222 349.59 286.582 349.095C286.942 348.601 287.571 348.196 288.021 348.196C288.471 348.196 288.831 347.971 288.831 347.746C288.831 347.476 289.235 347.296 289.73 347.296C290.225 347.296 290.63 347.071 290.63 346.847C290.63 346.577 290.989 346.397 291.439 346.397C291.889 346.397 292.518 345.992 292.878 345.497C293.238 345.003 293.868 344.598 294.317 344.598C294.767 344.598 295.127 344.373 295.127 344.148C295.127 343.878 295.532 343.698 296.026 343.698C296.521 343.698 296.926 343.474 296.926 343.249C296.926 342.979 297.286 342.799 297.735 342.799C298.185 342.799 298.815 342.394 299.175 341.899C299.534 341.405 300.164 341 300.614 341C301.063 341 301.423 340.775 301.423 340.55C301.423 340.28 301.783 340.101 302.233 340.101C302.683 340.101 303.312 339.696 303.672 339.201C304.032 338.706 304.661 338.302 305.111 338.302C305.561 338.302 305.921 338.077 305.921 337.852C305.921 337.582 306.325 337.402 306.82 337.402C307.315 337.402 307.72 337.177 307.72 336.952C307.72 336.683 308.079 336.503 308.529 336.503C308.979 336.503 309.608 336.098 309.968 335.603C310.328 335.108 310.958 334.704 311.407 334.704C311.857 334.704 312.217 334.479 312.217 334.254C312.217 333.984 312.622 333.804 313.116 333.804C313.611 333.804 314.016 333.579 314.016 333.354C314.016 333.085 314.376 332.905 314.825 332.905C315.275 332.905 315.905 332.5 316.265 332.005C316.624 331.511 317.254 331.106 317.704 331.106C318.153 331.106 318.513 330.881 318.513 330.656C318.513 330.386 318.918 330.206 319.413 330.206C319.907 330.206 320.312 329.981 320.312 329.757C320.312 329.487 320.672 329.307 321.122 329.307C321.571 329.307 322.201 328.902 322.561 328.407C322.921 327.913 323.55 327.508 324 327.508C324.45 327.508 324.809 327.283 324.809 327.058C324.809 326.788 325.169 326.608 325.619 326.608C326.069 326.608 326.698 326.204 327.058 325.709C327.418 325.214 328.048 324.81 328.497 324.81C328.947 324.81 329.307 324.585 329.307 324.36C329.307 324.09 329.712 323.91 330.206 323.91C330.701 323.91 331.106 323.685 331.106 323.46C331.106 323.19 331.466 323.011 331.915 323.011C332.365 323.011 332.995 322.606 333.354 322.111C333.714 321.616 334.344 321.212 334.794 321.212C335.243 321.212 335.603 320.987 335.603 320.762C335.603 320.492 336.008 320.312 336.503 320.312C336.997 320.312 337.402 320.087 337.402 319.862C337.402 319.593 337.762 319.413 338.212 319.413C338.661 319.413 339.291 319.008 339.651 318.513C340.011 318.019 340.64 317.614 341.09 317.614C341.54 317.614 341.899 317.389 341.899 317.164C341.899 316.894 342.304 316.714 342.799 316.714C343.294 316.714 343.698 316.489 343.698 316.265C343.698 315.995 344.058 315.815 344.508 315.815C344.958 315.815 345.587 315.41 345.947 314.915C346.307 314.421 346.936 314.016 347.386 314.016C347.836 314.016 348.196 313.791 348.196 313.566C348.196 313.296 348.421 313.116 348.645 313.116C348.915 313.116 349.095 313.296 349.095 313.566ZM232.434 314.646C232.794 315.005 233.063 315.635 233.063 315.995C233.063 316.399 233.288 316.714 233.513 316.714C233.783 316.714 233.963 317.074 233.963 317.524C233.963 317.974 234.368 318.603 234.862 318.963C235.357 319.323 235.762 319.952 235.762 320.402C235.762 320.852 235.987 321.212 236.212 321.212C236.481 321.212 236.661 321.616 236.661 322.111C236.661 322.606 236.886 323.011 237.111 323.011C237.381 323.011 237.561 323.37 237.561 323.82C237.561 324.27 237.966 324.899 238.46 325.259C238.955 325.619 239.36 326.249 239.36 326.698C239.36 327.148 239.585 327.508 239.809 327.508C240.079 327.508 240.259 327.913 240.259 328.407C240.259 328.902 240.484 329.307 240.709 329.307C240.979 329.307 241.159 329.667 241.159 330.116C241.159 330.566 241.563 331.196 242.058 331.556C242.553 331.915 242.958 332.545 242.958 332.995C242.958 333.444 243.183 333.804 243.407 333.804C243.677 333.804 243.857 334.209 243.857 334.704C243.857 335.198 244.082 335.603 244.307 335.603C244.577 335.603 244.757 335.918 244.757 336.323C244.757 336.728 245.161 337.447 245.701 337.897L246.645 338.706L244.352 340.955C243.093 342.169 242.058 343.519 242.058 343.878C242.058 344.283 241.878 344.598 241.608 344.598C241.384 344.598 241.159 343.968 241.159 343.249C241.159 342.484 240.979 341.899 240.709 341.899C240.484 341.899 240.259 341.27 240.259 340.55C240.259 339.786 240.079 339.201 239.809 339.201C239.585 339.201 239.36 338.571 239.36 337.852C239.36 337.087 239.18 336.503 238.91 336.503C238.685 336.503 238.46 335.873 238.46 335.153C238.46 334.389 238.28 333.804 238.011 333.804C237.786 333.804 237.561 333.175 237.561 332.455C237.561 331.69 237.381 331.106 237.111 331.106C236.886 331.106 236.661 330.476 236.661 329.757C236.661 328.992 236.481 328.407 236.212 328.407C235.987 328.407 235.762 327.778 235.762 327.058C235.762 326.294 235.582 325.709 235.312 325.709C235.087 325.709 234.862 325.079 234.862 324.36C234.862 323.595 234.683 323.011 234.413 323.011C234.188 323.011 233.963 322.381 233.963 321.661C233.963 320.897 233.783 320.312 233.513 320.312C233.288 320.312 233.063 319.683 233.063 318.963C233.063 318.198 232.884 317.614 232.614 317.614C232.389 317.614 232.164 317.209 232.164 316.714C232.164 316.22 231.984 315.815 231.714 315.815C231.489 315.815 231.265 315.41 231.265 314.915C231.265 313.836 231.534 313.791 232.434 314.646ZM380.847 350.624C381.206 350.984 381.476 351.614 381.476 351.974C381.476 352.378 381.701 352.693 381.926 352.693C382.196 352.693 382.376 353.053 382.376 353.503C382.376 353.952 382.78 354.582 383.275 354.942C383.77 355.302 384.175 355.931 384.175 356.381C384.175 356.831 384.399 357.19 384.624 357.19C384.894 357.19 385.074 357.595 385.074 358.09C385.074 358.585 385.299 358.989 385.524 358.989C385.794 358.989 385.974 359.349 385.974 359.799C385.974 360.249 386.378 360.878 386.873 361.238C387.368 361.598 387.772 362.228 387.772 362.677C387.772 363.127 387.997 363.487 388.222 363.487C388.492 363.487 388.672 363.847 388.672 364.296C388.672 364.746 389.077 365.376 389.571 365.735C390.066 366.095 390.471 366.725 390.471 367.175C390.471 367.624 390.696 367.984 390.921 367.984C391.19 367.984 391.37 368.389 391.37 368.884C391.37 369.378 391.595 369.783 391.82 369.783C392.09 369.783 392.27 370.143 392.27 370.593C392.27 371.042 392.675 371.672 393.169 372.032C393.664 372.392 394.069 373.021 394.069 373.471C394.069 373.921 394.294 374.28 394.518 374.28C394.788 374.28 394.968 374.685 394.968 375.18C394.968 375.675 395.193 376.079 395.418 376.079C396.362 376.079 395.868 379.228 394.743 380.352L393.664 381.476H329.532C287.122 381.476 265.444 381.341 265.444 381.026C265.444 380.757 266.074 380.577 266.794 380.577C267.558 380.577 268.143 380.352 268.143 380.127C268.143 379.857 268.952 379.677 269.942 379.677C270.931 379.677 271.741 379.452 271.741 379.228C271.741 378.958 272.55 378.778 273.54 378.778C274.529 378.778 275.339 378.553 275.339 378.328C275.339 378.058 276.148 377.878 277.138 377.878C278.127 377.878 278.936 377.653 278.936 377.429C278.936 377.159 279.566 376.979 280.286 376.979C281.05 376.979 281.635 376.754 281.635 376.529C281.635 376.259 282.444 376.079 283.434 376.079C284.423 376.079 285.233 375.854 285.233 375.63C285.233 375.36 286.042 375.18 287.032 375.18C288.021 375.18 288.831 374.955 288.831 374.73C288.831 374.46 289.64 374.28 290.63 374.28C291.619 374.28 292.429 374.056 292.429 373.831C292.429 373.561 293.058 373.381 293.778 373.381C294.542 373.381 295.127 373.156 295.127 372.931C295.127 372.661 295.936 372.481 296.926 372.481C297.915 372.481 298.725 372.257 298.725 372.032C298.725 371.762 299.534 371.582 300.524 371.582C301.513 371.582 302.323 371.357 302.323 371.132C302.323 370.862 303.132 370.683 304.122 370.683C305.111 370.683 305.921 370.458 305.921 370.233C305.921 369.963 306.55 369.783 307.27 369.783C308.034 369.783 308.619 369.558 308.619 369.333C308.619 369.063 309.429 368.884 310.418 368.884C311.407 368.884 312.217 368.659 312.217 368.434C312.217 368.164 313.026 367.984 314.016 367.984C315.005 367.984 315.815 367.759 315.815 367.534C315.815 367.265 316.444 367.085 317.164 367.085C317.929 367.085 318.513 366.86 318.513 366.635C318.513 366.365 319.323 366.185 320.312 366.185C321.302 366.185 322.111 365.96 322.111 365.735C322.111 365.466 322.921 365.286 323.91 365.286C324.899 365.286 325.709 365.061 325.709 364.836C325.709 364.566 326.518 364.386 327.508 364.386C328.497 364.386 329.307 364.161 329.307 363.937C329.307 363.667 329.936 363.487 330.656 363.487C331.421 363.487 332.005 363.262 332.005 363.037C332.005 362.767 332.815 362.587 333.804 362.587C334.794 362.587 335.603 362.362 335.603 362.138C335.603 361.868 336.413 361.688 337.402 361.688C338.392 361.688 339.201 361.463 339.201 361.238C339.201 360.968 340.011 360.788 341 360.788C341.989 360.788 342.799 360.563 342.799 360.339C342.799 360.069 343.429 359.889 344.148 359.889C344.913 359.889 345.497 359.664 345.497 359.439C345.497 359.169 346.307 358.989 347.296 358.989C348.286 358.989 349.095 358.765 349.095 358.54C349.095 358.27 349.905 358.09 350.894 358.09C351.884 358.09 352.693 357.865 352.693 357.64C352.693 357.37 353.503 357.19 354.492 357.19C355.481 357.19 356.291 356.966 356.291 356.741C356.291 356.471 356.921 356.291 357.64 356.291C358.405 356.291 358.989 356.066 358.989 355.841C358.989 355.571 359.799 355.392 360.788 355.392C361.778 355.392 362.587 355.167 362.587 354.942C362.587 354.672 363.397 354.492 364.386 354.492C365.376 354.492 366.185 354.267 366.185 354.042C366.185 353.772 366.815 353.593 367.534 353.593C368.299 353.593 368.884 353.368 368.884 353.143C368.884 352.873 369.693 352.693 370.682 352.693C371.672 352.693 372.481 352.468 372.481 352.243C372.481 351.974 373.291 351.794 374.28 351.794C375.27 351.794 376.079 351.569 376.079 351.344C376.079 351.074 376.889 350.894 377.878 350.894C378.868 350.894 379.677 350.669 379.677 350.444C379.677 349.815 380.082 349.905 380.847 350.624Z" fill="black"/>
</svg>
