<svg width="512" height="512" viewBox="0 0 512 512" fill="none" xmlns="http://www.w3.org/2000/svg">
<rect width="512" height="512" fill="#52B54B"/>
<path fill-rule="evenodd" clip-rule="evenodd" d="M241.214 66C242.542 65.9972 243.817 66.5225 244.756 67.4597L327.796 150.318L338.416 139.722C340.366 137.776 343.529 137.776 345.479 139.722L444.537 238.563C446.488 240.51 446.488 243.665 444.537 245.611L361.913 328.055L372.533 338.651C374.483 340.597 374.483 343.753 372.533 345.699L273.475 444.54C271.524 446.487 268.362 446.487 266.411 444.54L183.788 362.097L173.168 372.693C171.218 374.64 168.055 374.64 166.105 372.693L67.4629 274.267C65.5124 272.321 65.5124 269.165 67.4629 267.219L149.254 185.607L138.219 174.595C136.274 172.654 136.267 169.51 138.204 167.562L237.678 67.4744C238.613 66.5333 239.886 66.0028 241.214 66ZM241.239 78.0462L148.799 171.056L159.849 182.083C161.8 184.029 161.8 187.184 159.849 189.131L78.0578 270.743L169.636 362.122L180.256 351.525C182.206 349.579 185.369 349.579 187.319 351.525L269.943 433.969L361.938 342.175L351.318 331.579C349.368 329.632 349.368 326.477 351.318 324.531L433.942 242.087L341.947 150.294L331.328 160.89C329.377 162.836 326.215 162.836 324.265 160.89L241.239 78.0462Z" fill="white"/>
<path d="M213.752 325.563V188.099L334.87 256.623L213.752 325.563Z" fill="white"/>
</svg>
