<svg width="512" height="512" viewBox="0 0 512 512" fill="none" xmlns="http://www.w3.org/2000/svg">
<rect width="512" height="512" fill="#8D44F7"/>
<path d="M246.394 128H265.357C267.97 128.914 273.032 129.073 276.003 129.543C281.686 130.489 287.307 131.774 292.837 133.391C326.008 143.415 353.718 166.423 369.669 197.186C375.527 208.371 379.63 220.391 381.835 232.824C382.335 235.636 383.433 245.458 384 247.338V265.156C383.118 267.582 382.752 273.621 382.322 276.428C376.119 316.783 349.646 352.267 313.268 370.488C303.626 375.359 293.409 378.992 282.858 381.307C280.244 381.905 267.795 383.415 266.697 384H245.34C244.406 383.48 239.466 382.9 238.162 382.723C231.665 381.843 225.46 380.61 219.163 378.71C178.925 366.502 147.183 335.414 134.14 295.438C131.587 287.506 129.876 279.643 128.972 271.363C128.848 270.227 128.538 267.615 128 266.744V245.287C128.67 244.213 130.006 233.173 130.43 230.934C132.262 221.487 135.204 212.289 139.194 203.532C154.086 170.853 182.643 144.444 217.184 133.99C223.092 132.173 229.108 130.724 235.197 129.654C237.595 129.238 244.6 128.739 246.394 128Z" fill="black"/>
<path d="M314.191 361.424C307.936 365.08 299.529 368.556 292.663 370.767C262.204 380.5 229.124 377.702 200.732 362.993C172.507 348.334 151.173 323.171 141.33 292.927C131.455 262.339 134.213 229.073 148.99 200.528C163.705 172.464 188.819 151.273 218.959 141.489C250.651 131.321 281.862 133.92 311.454 149.149C310.842 149.935 310.468 150.634 309.992 151.504C303.253 163.84 301.729 178.358 305.76 191.824C309.998 206.05 319.698 218.018 332.738 225.11C345.377 231.946 359.671 233.124 373.4 229.063C378.623 251.731 377.143 275.428 369.138 297.27C367.14 302.749 364.36 309.149 361.379 314.175C358.628 310.547 355.184 307.501 351.248 305.214C348.708 303.721 343.429 300.998 340.501 301.913C339.097 302.351 338.542 303.389 337.873 304.573C335.572 303.884 330.213 304.435 327.886 305.13C324.231 297.363 310.764 309.82 307.854 313.597C302.3 320.794 299.826 329.899 300.974 338.917C302.194 348.202 306.805 355.755 314.191 361.424Z" fill="#E2E1E1"/>
<path d="M284.566 189.46C287.692 190.589 288.815 192.323 287.765 195.586C285.03 204.314 278.91 211.58 270.775 215.76C262.787 219.828 253.512 220.562 244.984 217.799C236.428 215.003 229.345 208.904 225.311 200.858C221.267 192.855 220.591 183.567 223.432 175.062C226.327 166.546 232.46 159.511 240.502 155.481C248.6 151.521 257.937 150.934 266.467 153.849C274.896 156.768 281.829 162.901 285.755 170.911C287.51 174.513 289.078 177.754 284.542 179.775C285.486 182.554 286.141 186.253 284.816 188.97C284.735 189.135 284.652 189.298 284.566 189.46Z" fill="#E2E1E1"/>
<path d="M284.566 189.46C287.692 190.589 288.815 192.323 287.765 195.586C285.03 204.314 278.91 211.58 270.775 215.76C262.787 219.828 253.512 220.562 244.984 217.799C236.428 215.003 229.345 208.904 225.311 200.858C221.267 192.855 220.591 183.567 223.432 175.062C226.327 166.546 232.46 159.511 240.502 155.481C248.6 151.521 257.937 150.934 266.467 153.849C274.896 156.768 281.829 162.901 285.755 170.911C287.51 174.513 289.078 177.754 284.542 179.775C279.474 179.387 280.259 175.938 278.053 172.282C273.615 165.078 266.046 160.382 257.621 159.602C250.614 159.068 243.68 161.326 238.33 165.883C233.145 170.37 229.94 176.721 229.409 183.557C228.808 190.525 231.035 197.442 235.587 202.751C248.457 217.611 272.727 213.671 279.764 195.293C280.836 192.492 281.455 190.191 284.566 189.46Z" fill="black"/>
<path d="M328.912 244.085C339.232 243.176 348.33 250.816 349.218 261.138C350.106 271.459 342.446 280.541 332.123 281.408C321.83 282.273 312.78 274.641 311.894 264.349C311.009 254.057 318.622 244.992 328.912 244.085Z" fill="black"/>
<path d="M328.814 251.662C334.908 250.702 340.631 254.852 341.614 260.942C342.597 267.033 338.469 272.771 332.382 273.776C326.263 274.787 320.488 270.633 319.5 264.51C318.512 258.387 322.688 252.627 328.814 251.662Z" fill="#E2E1E1"/>
<path d="M266.087 244.913C273.085 244.231 279.315 249.341 280.014 256.337C280.714 263.333 275.619 269.575 268.625 270.292C261.606 271.011 255.337 265.895 254.636 258.874C253.934 251.854 259.065 245.598 266.087 244.913Z" fill="black"/>
<path d="M265.62 252.683C268.317 251.737 271.273 253.146 272.236 255.838C273.199 258.529 271.809 261.494 269.123 262.474C267.815 262.952 266.369 262.884 265.111 262.287C263.853 261.69 262.886 260.612 262.429 259.297C262.053 258.217 262.044 257.043 262.403 255.957C262.91 254.426 264.098 253.216 265.62 252.683Z" fill="#C0BFBF"/>
<path d="M273.009 323.902C278.805 323.27 284.02 327.446 284.67 333.24C285.321 339.033 281.163 344.262 275.372 344.933C269.553 345.606 264.293 341.424 263.639 335.602C262.985 329.781 267.185 324.536 273.009 323.902Z" fill="black"/>
<path d="M272.896 331.677C274.391 330.991 276.16 331.617 276.891 333.09C277.622 334.563 277.051 336.35 275.601 337.126C274.623 337.65 273.437 337.6 272.506 336.995C271.576 336.391 271.048 335.328 271.129 334.221C271.21 333.114 271.887 332.139 272.896 331.677Z" fill="#C0BFBF"/>
<path d="M317.884 152.645C345.73 170.743 360.977 190.318 371.581 221.807C369.093 222.505 367.486 222.829 364.942 223.264C354.642 224.672 345.396 223.292 336.214 218.392C325.044 212.347 316.731 202.116 313.099 189.946C309.092 176.576 311.38 164.66 317.884 152.645Z" fill="#E2E1E1"/>
<path d="M327.886 305.13C330.212 304.435 335.572 303.884 337.873 304.573C337.902 305.273 337.88 305.795 338.104 306.463C340.07 310.205 344.774 309.568 348.583 312.332C352.846 315.425 354.324 317.082 357.23 321.432C348.64 333.416 338.949 345.167 326.586 353.538C324.858 354.765 323.141 356.006 321.435 357.262C319.411 356.027 317.659 354.731 315.965 353.065C311.023 348.241 308.252 341.616 308.287 334.71C308.251 323.63 314.313 314.428 324.304 310.29C327.051 309.152 328.104 308.281 327.886 305.13Z" fill="#E2E1E1"/>
<path d="M327.886 305.13C330.212 304.435 335.572 303.884 337.873 304.573C337.902 305.273 337.88 305.795 338.104 306.463C322.278 313.769 315.178 330.906 322.639 347.182C323.226 348.464 325.558 352.765 326.586 353.538C324.858 354.765 323.141 356.006 321.435 357.262C319.411 356.027 317.659 354.731 315.965 353.065C311.023 348.241 308.252 341.616 308.287 334.71C308.251 323.63 314.313 314.428 324.304 310.29C327.051 309.152 328.104 308.281 327.886 305.13Z" fill="#C0BFBF"/>
</svg>
