<svg width="512" height="512" viewBox="0 0 512 512" fill="none" xmlns="http://www.w3.org/2000/svg">
<rect width="512" height="512" fill="#18BCF2"/>
<path fill-rule="evenodd" clip-rule="evenodd" d="M244.686 114.686L139.302 220.071C131.425 227.948 127 238.63 127 249.77V344.373C127 353.761 134.611 361.373 144 361.373H242.619L199.662 318.002C197.276 318.888 194.694 319.373 192 319.373C179.85 319.373 170 309.523 170 297.373C170 285.222 179.85 275.373 192 275.373C204.15 275.373 214 285.222 214 297.373C214 299.808 213.604 302.151 212.873 304.341L246.112 337.899L246.5 323.742V213.221C239.106 209.676 234 202.121 234 193.373C234 181.222 243.85 171.373 256 171.373C268.15 171.373 278 181.222 278 193.373C278 202.121 272.894 209.676 265.5 213.221V300.938L299.119 267.319C298.393 265.135 298 262.8 298 260.373C298 248.222 307.85 238.373 320 238.373C332.15 238.373 342 248.222 342 260.373C342 272.523 332.15 282.373 320 282.373C317.297 282.373 314.707 281.885 312.315 280.993L265.393 327.915L264.586 361.373H368C377.389 361.373 385 353.761 385 344.373V249.77C385 238.63 380.575 227.948 372.698 220.071L267.314 114.686C261.065 108.438 250.935 108.438 244.686 114.686Z" fill="#F2F4F9"/>
</svg>
