<svg width="512" height="512" viewBox="0 0 512 512" fill="none" xmlns="http://www.w3.org/2000/svg">
<rect width="512" height="512" fill="white"/>
<path d="M246.176 201.153C264.068 217.08 278.487 234.148 287.767 250.233C303.705 221.573 314.355 187.516 314.49 165.825C314.49 165.672 314.49 165.532 314.49 165.402C314.49 133.306 282.646 120.814 255.214 120.814C227.783 120.814 195.939 133.306 195.939 165.402C195.939 165.84 195.939 166.426 195.939 167.134C211.229 173.968 229.353 186.18 246.176 201.153Z" fill="#FA2921"/>
<path d="M148.569 288.679C159.752 276.169 176.908 262.612 196.269 251.15C216.865 238.961 237.466 230.446 255.548 226.549C233.364 202.451 204.442 181.743 183.961 174.913C183.817 174.866 183.683 174.824 183.562 174.783C153.2 164.866 131.543 191.454 123.069 217.684C114.596 243.915 116.568 278.227 146.93 288.143C147.343 288.278 147.898 288.46 148.569 288.679Z" fill="#ED79B5"/>
<path d="M387.681 217.242C379.207 191.012 357.55 164.424 327.188 174.341C326.772 174.475 326.216 174.657 325.549 174.876C323.813 191.603 317.862 212.713 308.898 233.426C299.363 255.456 287.671 274.521 275.322 288.363C307.356 294.75 342.863 294.406 363.422 287.832C363.566 287.785 363.7 287.739 363.82 287.701C394.182 277.78 396.155 243.468 387.681 217.242Z" fill="#FFB400"/>
<path d="M228.142 314.323C222.979 290.862 221.288 268.529 223.187 250.036C193.538 263.803 165.014 285.061 152.22 302.534C152.132 302.655 152.048 302.772 151.974 302.874C133.211 328.843 151.669 357.769 173.863 373.976C196.052 390.187 229.119 398.902 247.886 372.933C248.146 372.579 248.488 372.104 248.9 371.531C240.524 356.973 232.995 336.377 228.142 314.323Z" fill="#1E83F7"/>
<path d="M358.279 301.201C341.919 304.712 320.114 305.545 297.749 303.371C273.962 301.062 252.319 295.773 235.408 288.24C239.265 320.844 250.564 354.691 263.136 372.322C263.224 372.443 263.307 372.559 263.381 372.661C282.144 398.631 315.211 389.915 337.404 373.704C359.594 357.493 378.056 328.568 359.293 302.603C359.034 302.249 358.691 301.774 358.279 301.201Z" fill="#18C249"/>
</svg>
