<svg width="512" height="512" viewBox="0 0 512 512" fill="none" xmlns="http://www.w3.org/2000/svg">
<rect width="512" height="512" fill="#000B25"/>
<path fill-rule="evenodd" clip-rule="evenodd" d="M255.511 99C295.511 99 398.511 297 398.511 345C398.511 345.091 398.512 345.194 398.514 345.309C398.591 350.845 399.04 383 255.511 383C112.433 383 112.906 352.001 113.006 345.429C113.009 345.272 113.011 345.128 113.011 345C113.011 298 215.511 99 255.511 99ZM349.063 316.113C349.063 284.676 281.604 155 255.406 155C229.208 155 162.075 285.331 162.075 316.113C162.075 316.272 162.064 316.465 162.051 316.69L162.051 316.69C161.765 321.553 160.622 341 255.406 341C350.55 341 349.338 320.802 349.083 316.562C349.072 316.383 349.063 316.232 349.063 316.113ZM302.508 289.423C302.508 273.535 268.598 208 255.429 208C242.26 208 208.514 273.866 208.514 289.423C208.514 289.465 208.514 289.512 208.513 289.564C208.48 291.74 208.324 302 255.429 302C302.682 302 302.535 291.357 302.509 289.525C302.509 289.499 302.509 289.475 302.508 289.452C302.508 289.442 302.508 289.432 302.508 289.423Z" fill="url(#paint0_linear_3_43)"/>
<defs>
<linearGradient id="paint0_linear_3_43" x1="133.011" y1="210" x2="419.511" y2="362" gradientUnits="userSpaceOnUse">
<stop offset="0.11" stop-color="#A75DC3"/>
<stop offset="1" stop-color="#00A4DC"/>
</linearGradient>
</defs>
</svg>
