<svg width="512" height="512" viewBox="0 0 512 512" fill="none" xmlns="http://www.w3.org/2000/svg">
<rect width="512" height="512" fill="#A6381D"/>
<path d="M110.491 248.128C110.491 284.167 123.666 317.896 146.516 343.972L132.754 356.313C106.453 326.415 91.9625 287.948 92 248.128C92 202.222 110.86 160.73 141.255 130.95L141.938 131.565L182.706 168.123C164.214 185.063 152.159 207.883 148.589 232.705C145.019 257.527 150.154 282.82 163.121 304.284L177.198 291.67C167.285 273.711 163.799 252.906 167.318 232.696C170.837 212.487 181.15 194.084 196.55 180.533L210.49 193.038L222.913 204.162L235.773 215.697C230.277 219.115 225.746 223.881 222.61 229.543C219.474 235.204 217.838 241.574 217.856 248.046C217.856 264.856 228.721 279.11 243.809 284.208L245.108 301.934C236.137 300.113 227.763 296.082 220.744 290.207C213.726 284.331 208.285 276.797 204.915 268.286C201.544 259.776 200.352 250.559 201.445 241.471C202.538 232.384 205.881 223.712 211.173 216.244L198.873 205.187L198.819 205.146C189.038 218.152 183.985 234.105 184.494 250.37C185.004 266.635 191.045 282.24 201.62 294.608L160.306 331.645C140.62 309.091 129.535 280.306 129.01 250.374C128.485 220.441 138.553 191.286 157.436 168.055L143.619 155.687C124.009 179.448 112.486 208.842 110.723 239.6L110.641 239.709L110.71 239.764C110.557 242.549 110.479 245.338 110.477 248.128H110.491ZM268.204 284.194C275.048 281.881 281.095 277.672 285.642 272.059C290.189 266.445 293.049 259.656 293.891 252.48C294.733 245.305 293.521 238.039 290.396 231.525C287.272 225.011 282.363 219.518 276.24 215.683L289.101 204.149L301.51 193.024L315.464 180.519C330.866 194.069 341.181 212.47 344.703 232.68C348.224 252.89 344.741 273.696 334.829 291.656L348.892 304.271C361.86 282.806 366.995 257.514 363.425 232.691C359.855 207.869 347.799 185.049 329.308 168.11L370.048 131.579L370.732 130.964C386.349 146.215 398.755 164.44 407.216 184.563C415.678 204.685 420.025 226.299 420 248.128C420 288.855 405.035 326.971 379.246 356.313L365.484 343.972C390.661 315.299 403.522 277.857 401.277 239.764L401.345 239.709L401.263 239.614C399.504 208.851 387.981 179.451 368.367 155.687L354.591 168.041C373.473 191.274 383.538 220.43 383.01 250.363C382.483 280.295 371.396 309.079 351.708 331.631L310.393 294.595C320.969 282.226 327.01 266.621 327.519 250.356C328.029 234.091 322.976 218.138 313.195 205.133L313.14 205.174L300.84 216.216C306.132 223.684 309.476 232.354 310.57 241.441C311.664 250.528 310.472 259.744 307.103 268.254C303.735 276.764 298.295 284.299 291.278 290.175C284.261 296.052 275.889 300.084 266.92 301.906L268.204 284.194ZM256 381.036L260.578 318.566L264.282 267.835C268.817 265.924 272.55 262.502 274.85 258.151C277.149 253.801 277.872 248.788 276.897 243.965C275.922 239.141 273.308 234.804 269.499 231.688C265.691 228.572 260.921 226.87 256 226.87C251.079 226.87 246.309 228.572 242.501 231.688C238.692 234.804 236.078 239.141 235.103 243.965C234.128 248.788 234.851 253.801 237.15 258.151C239.45 262.502 243.183 265.924 247.718 267.835L251.422 318.566L256 381.036Z" fill="white"/>
</svg>
