<svg width="512" height="512" viewBox="0 0 512 512" fill="none" xmlns="http://www.w3.org/2000/svg">
<rect width="512" height="512" fill="#201F1B"/>
<path d="M236.24 191.377C194.068 186.879 151.584 155.003 148.23 87.559C213.672 87.559 248.668 126.299 252.048 187.685C264.424 114.053 322.43 122.685 322.43 122.685C325.186 164.415 290.918 189.713 252.048 191.819C241.128 168.809 175.712 112.363 175.712 112.363C175.681 112.337 175.642 112.322 175.601 112.32C175.56 112.318 175.52 112.331 175.487 112.355C175.454 112.379 175.43 112.413 175.419 112.452C175.408 112.491 175.41 112.533 175.426 112.571C175.426 112.571 238.554 167.561 236.24 191.377Z" fill="url(#paint0_linear_5_53)"/>
<path d="M370.4 308.367C370.4 312.831 365.962 352.548 326.442 352.548C300.447 354.413 280.25 333.909 255.035 333.909C192.095 338.625 200.56 423.071 255.691 423.071C269.471 423.107 282.156 417.299 291.906 407.59L355.481 344.018C366.032 333.501 370.4 320.033 370.4 308.367Z" fill="#F60D1A"/>
<path d="M255.587 194.38C260.051 194.38 299.768 198.818 299.768 238.338C301.633 264.333 281.129 284.53 281.129 309.745C285.845 372.685 370.291 364.22 370.291 309.089C370.327 295.309 364.519 282.624 354.81 272.874L291.238 209.299C280.721 198.748 267.253 194.38 255.587 194.38Z" fill="#96060C"/>
<path d="M256.413 423.18C251.949 423.18 212.232 418.742 212.232 379.222C210.367 353.227 230.871 333.03 230.871 307.815C226.155 244.875 141.709 253.34 141.709 308.471C141.673 322.251 147.481 334.936 157.19 344.686L220.762 408.261C231.279 418.812 244.747 423.18 256.413 423.18Z" fill="#96060C"/>
<path d="M141.6 309.193C141.6 304.729 146.038 265.012 185.558 265.012C211.553 263.147 231.75 283.651 256.965 283.651C319.905 278.935 311.44 194.489 256.309 194.489C242.529 194.453 229.844 200.261 220.094 209.97L156.519 273.542C145.968 284.059 141.6 297.527 141.6 309.193Z" fill="#F60D1A"/>
<defs>
<linearGradient id="paint0_linear_5_53" x1="148.23" y1="87.559" x2="287.714" y2="87.559" gradientUnits="userSpaceOnUse">
<stop stop-color="#22B225"/>
<stop offset="1" stop-color="#29FC2E"/>
</linearGradient>
</defs>
</svg>
