<svg width="512" height="512" viewBox="0 0 512 512" fill="none" xmlns="http://www.w3.org/2000/svg">
<rect width="512" height="512" fill="#191E21"/>
<g clip-path="url(#clip0_5_39)">
<path d="M157.436 208.324C145.676 208.324 138.101 211.713 131.723 219.688V210.916H109V318.977C109 318.977 109.399 319.177 110.595 319.376C112.189 319.775 120.561 321.569 126.74 316.386C132.122 311.8 133.318 306.417 133.318 300.435V284.884C139.895 291.862 147.27 294.853 157.635 294.853C179.96 294.853 197.101 276.71 197.101 252.585C197.101 226.467 180.558 208.324 157.436 208.324ZM153.051 274.317C140.493 274.317 130.527 263.95 130.527 251.389C130.527 239.028 142.287 229.059 153.051 229.059C165.808 229.059 175.574 238.828 175.574 251.588C175.574 264.348 165.608 274.317 153.051 274.317Z" fill="white"/>
<path d="M229.392 249.994C229.392 259.364 230.389 270.729 239.557 283.09C239.757 283.289 240.155 283.887 240.155 283.887C236.368 290.268 231.784 294.654 225.605 294.654C220.821 294.654 216.037 292.062 212.051 287.676C207.865 282.891 205.872 276.71 205.872 270.131V184H229.193L229.392 249.994Z" fill="white"/>
<path d="M344.003 251.589L316.497 210.916H344.801L372.108 251.589L344.801 292.062H316.497L344.003 251.589Z" fill="#EBAF00"/>
<path d="M379.483 247.003L404 210.916H375.696L365.53 225.869L379.483 247.003Z" fill="white"/>
<path d="M365.53 277.308L370.314 283.887C374.899 291.065 380.878 294.654 387.855 294.654C395.23 294.454 400.412 288.074 402.405 285.682C402.405 285.682 398.817 282.492 394.233 277.109C388.054 269.931 379.882 256.772 379.682 256.174L365.53 277.308Z" fill="white"/>
<path d="M295.567 268.735C290.784 273.121 287.595 275.514 281.017 275.514C269.257 275.514 262.48 267.14 261.483 257.969H323.872C324.27 256.772 324.47 255.177 324.47 252.585C324.47 227.265 305.932 208.324 281.615 208.324C258.493 208.324 239.557 227.663 239.557 251.788C239.557 275.713 258.493 294.654 282.213 294.654C298.757 294.654 313.108 285.283 320.882 268.735H295.567ZM281.814 227.464C292.179 227.464 299.953 234.243 301.747 243.215H262.28C264.274 233.844 271.649 227.464 281.814 227.464Z" fill="white"/>
</g>
<defs>
<clipPath id="clip0_5_39">
<rect width="295" height="136" fill="white" transform="translate(109 184)"/>
</clipPath>
</defs>
</svg>
