<svg width="512" height="512" viewBox="0 0 512 512" fill="none" xmlns="http://www.w3.org/2000/svg">
<rect width="512" height="512" fill="#FDBF07"/>
<path d="M332.259 204.817C334.983 207.151 345.488 230.107 345.488 254.619C345.488 279.131 334.983 304.81 334.983 304.81M358.328 198.591C361.051 200.926 373.113 225.827 373.113 254.619C373.113 283.411 361.051 311.035 361.051 311.035M384.396 186.141C387.119 188.475 400.737 222.714 400.737 254.619C400.737 286.523 387.119 323.486 387.119 323.486M195.693 230.107V279.909H245.106L295.686 330.1L294.908 179.916L245.106 230.107H195.693Z" stroke="#4C2C2C" stroke-width="16" stroke-linecap="round" stroke-linejoin="round"/>
<path d="M247.483 357.123C244.115 358.36 218.953 356.317 197.562 344.348C176.172 332.378 158.893 310.671 158.893 310.671M240.185 382.912C236.818 384.148 209.198 382.514 184.073 368.455C158.947 354.395 140.73 330.38 140.73 330.38M238.321 411.74C234.954 412.977 198.425 408.141 170.583 392.562C142.741 376.982 117.135 347.049 117.135 347.049" stroke="#4C2C2C" stroke-width="16" stroke-linecap="round" stroke-linejoin="round"/>
<path d="M158.522 203.009C159.264 199.5 174.366 179.27 195.874 167.512C217.381 155.753 244.952 152.652 244.952 152.652M140.555 183.123C141.296 179.613 157.359 157.085 182.622 143.273C207.885 129.462 237.909 126.793 237.909 126.793M117.125 166.222C117.867 162.713 141.376 134.339 169.37 119.035C197.364 103.73 236.328 97.9475 236.328 97.9475" stroke="#4C2C2C" stroke-width="16" stroke-linecap="round" stroke-linejoin="round"/>
</svg>
