<svg width="512" height="512" viewBox="0 0 512 512" fill="none" xmlns="http://www.w3.org/2000/svg">
<rect width="512" height="512" fill="#201F1B"/>
<g clip-path="url(#clip0_91_124)">
<path d="M410.069 217.675C410.069 153.288 377.109 95.0331 291.26 95.0331C377.109 118.028 387.84 158.653 387.84 213.842C387.84 305.571 316.555 403.17 161.72 403.17C161.72 403.17 187.015 415.434 217.675 415.434C319.621 415.434 410.069 320.387 410.069 217.675Z" fill="#FE6000"/>
<path d="M210.01 412.368C302.757 412.368 395.505 301.991 395.505 202.345C395.505 141.024 352.58 95.033 297.392 95.033C224.573 95.033 184.715 137.191 184.715 137.191C184.715 137.191 233.005 102.698 283.595 102.698C341.849 102.698 380.175 145.623 378.642 203.877C378.642 295.859 296.625 398.571 194.679 398.571C166.319 398.571 144.09 389.373 144.09 389.373C144.09 389.373 156.354 412.368 210.01 412.368Z" fill="#FE3600"/>
<path d="M224.574 328.818C319.621 328.818 369.444 229.939 369.444 191.613C369.444 318.087 263.666 367.91 209.243 370.21C154.821 372.509 118.795 321.92 112.663 262.899C121.861 189.314 200.045 119.561 242.203 113.429C242.203 113.429 144.856 155.587 144.856 245.269C144.856 305.823 195.446 328.818 224.574 328.818Z" fill="#FED100"/>
<path d="M373.276 215.375C373.276 191.613 367.911 178.583 367.911 178.583C367.911 287.427 279.762 352.58 210.776 352.58C156.354 352.58 124.161 305.823 124.161 262.132C124.161 179.349 224.573 113.429 245.269 113.429C205.411 113.429 102.698 191.613 102.698 288.96C102.698 369.443 164.786 391.672 196.979 391.672C297.392 391.672 373.276 285.894 373.276 215.375Z" fill="#FE9B00"/>
</g>
<defs>
<clipPath id="clip0_91_124">
<rect width="308.137" height="320.401" fill="white" transform="translate(102.698 95.033)"/>
</clipPath>
</defs>
</svg>
