<svg width="512" height="512" viewBox="0 0 512 512" fill="none" xmlns="http://www.w3.org/2000/svg">
<rect width="512" height="512" fill="#262A2D"/>
<path d="M403.986 135.506C410.83 137.884 414.505 144.588 412.415 150.643C411.263 153.815 411.479 153.743 404.923 152.446C396.277 150.716 380.571 152.446 367.459 156.554C317.675 172.269 267.674 229.577 244.547 297.337C237.199 318.746 234.533 332.082 233.092 353.924C231.795 373.747 232.228 373.17 216.666 373.747C206.435 374.107 204.994 374.324 201.176 376.126L196.997 378L196.276 376.342C195.628 374.9 196.06 373.891 199.23 368.989C210.83 351.256 220.556 322.062 225.311 290.633C226.608 282.055 226.896 277.081 226.896 260.213C226.968 238.227 226.104 230.586 221.925 216.241C214.36 190.29 200.815 174.071 182.732 169.386C177.328 168.016 165.801 167.8 160.685 169.097C150.311 171.548 138.135 181.208 130.93 192.597C129.85 194.327 128.769 195.697 128.553 195.697C128.337 195.697 127.256 194.687 126.031 193.462C124.086 191.444 123.942 190.867 124.014 185.965C124.014 181.208 124.374 179.982 127.184 174.359C135.613 157.203 154.706 147.255 176.896 148.337C189.576 148.985 197.933 151.797 207.588 158.573C226.32 171.909 240.585 203.41 244.908 241.11C245.556 246.445 246.06 252.644 246.132 254.806C246.132 259.42 245.844 259.708 251.896 248.751C263.856 226.982 281.651 203.914 302.185 183.442C330.066 155.617 356.219 139.398 380.571 134.785C387.56 133.487 399.231 133.848 403.986 135.506Z" fill="white"/>
</svg>
