<svg width="512" height="512" viewBox="0 0 512 512" fill="none" xmlns="http://www.w3.org/2000/svg">
<rect width="512" height="512" fill="#FFC038"/>
<path d="M91 324.012V187.988L187.988 91H324.012L421 187.988V324.012L324.012 421H187.988L91 324.012Z" stroke="black" stroke-width="12" stroke-linejoin="round"/>
<path d="M246.841 138.925C245.945 141.707 246.15 146.277 246.805 148.206C247.058 148.951 247.152 149.354 247.555 149.756C247.555 149.756 245.542 151.768 244.335 155.39L240.655 156.175C238.871 156.612 232.394 158.141 226.28 159.56C200.15 165.638 188.795 169.095 179.879 173.68C170.563 178.484 167.688 183.506 170.781 189.62C173.729 195.516 180.134 199.446 189.523 201.084C193.017 201.703 203.644 201.703 207.901 201.12C212.924 200.392 218.2 198.973 221.003 197.59C224.06 196.062 233.049 188.419 240.291 181.177L245.131 176.337L246.347 178.732C249.164 179.537 256.045 179.939 259.225 179.939C262.445 179.939 270.896 179.134 273.713 178.329C273.895 177.893 274.409 176.317 274.518 176.317C274.664 176.317 276.428 178.229 278.321 180.158C285.126 187.036 295.898 196.28 298.373 197.372C301.066 198.573 306.124 199.883 310.419 200.538C315.404 201.302 325.267 201.411 329.452 200.72C338.805 199.191 345.792 194.97 348.594 189.147C352.052 181.905 347.393 176.228 333.2 170.478C324.539 166.984 314.385 164.145 293.06 159.196C286.873 157.777 280.504 156.248 278.939 155.848L276.064 155.047C275.153 153.257 274.345 151.192 272.908 149.756C272.908 149.354 273.08 149.37 273.48 147.805C274.499 143.875 273.844 139.035 271.916 135.687C269.466 131.501 264.961 128.626 260.088 128.626C254.396 128.829 248.671 132.687 246.841 138.925Z" fill="black"/>
<path d="M241.334 196.826C241.079 197.518 240.097 203.668 240.097 204.505C240.097 205.197 240.497 205.415 242.753 206.106C249.45 208.072 259.53 209.018 266.991 208.363C271.794 207.926 277.035 206.98 279.182 206.179C280.201 205.779 280.237 205.743 279.983 203.668C279.837 202.54 279.582 200.538 279.364 199.265L278.964 196.972L277.799 197.19C277.181 197.299 275.361 197.627 273.76 197.955C269.684 198.755 258.693 199.083 253.562 198.537C251.269 198.282 247.594 197.736 245.446 197.263C242.753 196.681 241.443 196.572 241.334 196.826Z" fill="black"/>
<path d="M244.5 228.415C246.356 231.108 248.722 233.619 251.16 235.439C255.309 238.532 256.583 239.078 259.749 239.042C262.988 239.042 264.443 238.423 268.301 235.512C270.703 233.656 275.034 228.997 275.034 228.233C275.034 228.015 274.451 227.978 273.614 228.124C266.045 229.325 255.782 229.288 248.649 227.978C243.372 227.032 243.518 227.032 244.5 228.415Z" fill="black"/>
<path d="M277.702 257.056C274.936 257.201 273.08 257.456 272.825 257.711C272.461 258.075 272.461 263.752 272.789 285.187C273.189 309.242 273.298 312.263 273.844 312.845C274.354 313.427 275.081 313.5 279.23 313.5C285.053 313.5 286.29 313.282 286.654 312.263C286.8 311.826 286.727 299.453 286.472 284.75C286.072 263.06 285.89 257.929 285.49 257.529C284.835 256.874 283.124 256.764 277.702 257.056Z" fill="black"/>
<path d="M239.298 257.71C237.696 257.82 237.114 258.038 236.823 258.547C236.423 259.312 237.296 312.153 237.733 313.209C238.097 314.155 239.734 314.337 245.23 314.046C248.833 313.864 250.397 313.646 250.689 313.282C251.016 312.881 251.016 306.331 250.689 286.679C250.47 272.304 250.179 260.003 250.07 259.384C249.961 258.729 249.597 258.038 249.196 257.82C248.541 257.492 243.956 257.419 239.298 257.71Z" fill="black"/>
<path d="M242.867 341.523C236.935 342.214 233.078 344.216 231.404 347.527L230.458 349.311V362.266C230.458 375.076 230.458 375.186 231.331 376.933C232.859 380.062 235.189 381.7 239.483 382.646L241.557 383.119V385.194C241.557 386.322 241.739 387.414 241.994 387.668C242.285 387.959 244.141 388.105 247.926 388.105C251.711 388.105 253.567 387.959 253.858 387.668C254.113 387.414 254.295 386.322 254.295 385.194V383.119L256.405 382.683C259.208 382.064 262.447 380.281 263.611 378.752C265.431 376.35 265.576 375.149 265.576 362.448C265.576 349.565 265.394 348.255 263.429 345.89C262.046 344.179 259.244 342.687 256.223 342.069C252.984 341.377 246.47 341.122 242.867 341.523ZM250.692 352.804C252.766 353.387 252.912 354.078 252.766 363.467C252.621 373.075 252.73 372.857 249.236 373.111C248.035 373.184 246.47 373.148 245.779 373.039C243.377 372.565 243.377 372.638 243.377 362.849C243.377 354.879 243.45 353.969 244.032 353.459C245.124 352.44 248.326 352.149 250.692 352.804Z" fill="black"/>
<path d="M182.965 342.942C182.747 343.415 182.602 350.257 182.602 362.63C182.602 375.004 182.747 381.846 182.965 382.319C183.329 382.937 183.803 383.01 188.97 383.01C194.138 383.01 194.611 382.937 194.975 382.319C195.193 381.882 195.339 377.733 195.339 371.474L195.375 361.357L196.94 364.268C199.415 368.781 199.56 368.926 202.29 369.072C203.746 369.145 204.947 369.035 205.492 368.744C206.038 368.453 207.13 366.888 208.222 364.85L210.078 361.429L210.187 371.728C210.223 378.607 210.405 382.209 210.66 382.537C211.206 383.192 221.905 383.228 222.56 382.573C223.179 381.955 223.179 343.306 222.56 342.687C222.015 342.141 211.097 342.069 210.26 342.614C209.969 342.796 208.404 345.344 206.803 348.328C202.836 355.534 202.945 355.534 199.342 348.947C195.303 341.523 196.358 342.251 189.334 342.251C183.803 342.251 183.329 342.287 182.965 342.942Z" fill="black"/>
<path d="M270.737 342.688C270.446 342.979 270.3 344.616 270.3 347.71C270.3 350.803 270.446 352.441 270.737 352.732C271.028 353.023 272.702 353.169 275.832 353.169H280.49V367.398C280.49 376.496 280.636 381.846 280.854 382.319C281.218 382.974 281.691 383.01 287.223 383.01C292.754 383.01 293.227 382.974 293.591 382.319C293.81 381.846 293.955 376.496 293.955 367.398V353.169H298.614C301.743 353.169 303.417 353.023 303.708 352.732C304 352.441 304.145 350.803 304.145 347.71C304.145 344.616 304 342.979 303.708 342.688C303.09 342.069 271.356 342.069 270.737 342.688Z" fill="black"/>
<path d="M307.871 342.688C307.58 342.979 307.435 344.616 307.435 347.564C307.435 351.131 307.544 352.15 308.017 352.586C308.454 353.059 309.473 353.169 313.112 353.169H317.624V367.07C317.624 377.588 317.734 381.227 318.098 381.919C318.571 382.828 318.571 382.828 324.321 382.938C328.251 383.01 330.253 382.901 330.58 382.61C331.017 382.282 331.09 379.589 331.09 367.689V353.169H335.748C341.789 353.169 341.643 353.314 341.643 347.746C341.643 345.49 341.461 343.343 341.28 342.942C340.916 342.287 340.333 342.251 324.612 342.251C312.42 342.251 308.199 342.36 307.871 342.688Z" fill="black"/>
<path d="M264.449 130.438L268.876 115.548L262.035 130.036L264.449 130.438Z" fill="black"/>
<path fill-rule="evenodd" clip-rule="evenodd" d="M281.357 115.118C281.373 115.562 281.025 115.935 280.581 115.95L269.489 116.333L265.024 131.349L260.858 130.655L268.364 114.761L280.525 114.341C280.969 114.326 281.342 114.674 281.357 115.118ZM265.103 125.437L263.223 129.417L263.886 129.528L265.103 125.437Z" fill="black"/>
<path d="M255.763 130.639L251.336 115.749L258.178 130.237L255.763 130.639Z" fill="black"/>
<path fill-rule="evenodd" clip-rule="evenodd" d="M238.856 115.318C238.84 115.762 239.188 116.134 239.632 116.15L250.724 116.532L255.189 131.549L259.354 130.855L251.849 114.96L239.688 114.541C239.243 114.526 238.871 114.873 238.856 115.318ZM255.11 125.637L256.99 129.617L256.326 129.727L255.11 125.637Z" fill="black"/>
<path d="M242.74 191.887C243.291 190.172 245.07 185.701 245.848 184.078C252.898 185.412 266.799 185.568 273.929 183.601C274.338 184.322 276.451 189.015 277.356 192.354C268.578 195.131 253.655 194.909 242.74 191.887Z" fill="white"/>
<path d="M241.533 220.632C240.871 218.244 240.1 215.395 240.078 211.19C249.283 214.155 266.276 215.831 280.413 211.732C280.387 213.284 279.918 218.379 278.761 221.347C266.109 225.618 248.646 223.205 241.533 220.632Z" fill="white"/>
</svg>
